<svg width="31" height="27" viewBox="0 0 31 27" fill="none" xmlns="http://www.w3.org/2000/svg">
<path d="M22.7656 0.000244141C21.0835 0.000244141 19.5412 0.526147 18.1818 1.56338C16.8785 2.55778 16.0108 3.82433 15.5 4.74531C14.9892 3.82427 14.1215 2.55778 12.8182 1.56338C11.4588 0.526147 9.91655 0.000244141 8.23438 0.000244141C3.54005 0.000244141 0 3.78843 0 8.81192C0 14.239 4.41647 17.9522 11.1024 23.5734C12.2378 24.528 13.5247 25.61 14.8623 26.7641C15.0386 26.9164 15.2651 27.0002 15.5 27.0002C15.7349 27.0002 15.9614 26.9164 16.1377 26.7641C17.4754 25.6099 18.7623 24.528 19.8983 23.5728C26.5835 17.9522 31 14.239 31 8.81192C31 3.78843 27.4599 0.000244141 22.7656 0.000244141Z" fill="url(#paint0_linear)"/>
<defs>
<linearGradient id="paint0_linear" x1="0" y1="13.7758" x2="33.5506" y2="13.7758" gradientUnits="userSpaceOnUse">
<stop stop-color="#F88632"/>
<stop offset="1" stop-color="#FF4B23"/>
</linearGradient>
</defs>
</svg>
