<svg width="20" height="20" viewBox="0 0 20 20" fill="none" xmlns="http://www.w3.org/2000/svg">
<g clip-path="url(#clip0)">
<path d="M10 0.000244141C4.48438 0.000244141 0 4.48462 0 10.0002C0 15.5159 4.48438 20.0002 10 20.0002C15.5156 20.0002 20 15.5159 20 10.0002C20 4.48462 15.5156 0.000244141 10 0.000244141ZM11.668 16.2502C11.668 16.4807 11.4805 16.6682 11.25 16.6682H8.75C8.51953 16.6682 8.33203 16.4807 8.33203 16.2502L8.32031 7.91821C8.32031 7.68774 8.50781 7.50024 8.73828 7.50024H11.25C11.4805 7.50024 11.668 7.68774 11.668 7.91821V16.2502ZM10 6.66821C9.08203 6.66821 8.33203 5.92212 8.33203 5.00024C8.33203 4.07837 9.07812 3.33228 10 3.33228C10.9219 3.33228 11.668 4.07837 11.668 5.00024C11.668 5.92212 10.918 6.66821 10 6.66821Z" fill="white"/>
</g>
<defs>
<clipPath id="clip0">
<rect width="20" height="20" fill="white" transform="translate(0 0.000244141)"/>
</clipPath>
</defs>
</svg>
