<svg width="72" height="72" viewBox="0 0 72 72" fill="none" xmlns="http://www.w3.org/2000/svg">
<g filter="url(#filter0_d)">
<circle cx="39" cy="33.0002" r="28.5" stroke="#39DE4A" stroke-width="3"/>
</g>
<path d="M46.7656 20.0002C45.0835 20.0002 43.5412 20.5261 42.1818 21.5634C40.8785 22.5578 40.0108 23.8243 39.5 24.7453C38.9892 23.8243 38.1215 22.5578 36.8182 21.5634C35.4588 20.5261 33.9165 20.0002 32.2344 20.0002C27.5401 20.0002 24 23.7884 24 28.8119C24 34.239 28.4165 37.9522 35.1024 43.5734C36.2378 44.528 37.5247 45.61 38.8623 46.7641C39.0386 46.9164 39.2651 47.0002 39.5 47.0002C39.7349 47.0002 39.9614 46.9164 40.1377 46.7641C41.4754 45.6099 42.7623 44.528 43.8983 43.5728C50.5835 37.9522 55 34.239 55 28.8119C55 23.7884 51.4599 20.0002 46.7656 20.0002Z" fill="#39DE4A"/>
<defs>
<filter id="filter0_d" x="0" y="0.000244141" width="72" height="72" filterUnits="userSpaceOnUse" color-interpolation-filters="sRGB">
<feFlood flood-opacity="0" result="BackgroundImageFix"/>
<feColorMatrix in="SourceAlpha" type="matrix" values="0 0 0 0 0 0 0 0 0 0 0 0 0 0 0 0 0 0 127 0"/>
<feOffset dx="-3" dy="3"/>
<feGaussianBlur stdDeviation="3"/>
<feColorMatrix type="matrix" values="0 0 0 0 0 0 0 0 0 0 0 0 0 0 0 0 0 0 0.25 0"/>
<feBlend mode="normal" in2="BackgroundImageFix" result="effect1_dropShadow"/>
<feBlend mode="normal" in="SourceGraphic" in2="effect1_dropShadow" result="shape"/>
</filter>
</defs>
</svg>
