<svg width="80" height="80" viewBox="0 0 80 80" fill="none" xmlns="http://www.w3.org/2000/svg">
<g filter="url(#filter0_d)">
<circle cx="40" cy="35" r="30" fill="white"/>
<path d="M47.7656 23C46.0835 23 44.5412 23.5259 43.1818 24.5631C41.8785 25.5575 41.0108 26.8241 40.5 27.7451C39.9892 26.824 39.1215 25.5575 37.8182 24.5631C36.4588 23.5259 34.9165 23 33.2344 23C28.5401 23 25 26.7882 25 31.8117C25 37.2388 29.4165 40.952 36.1024 46.5731C37.2378 47.5278 38.5247 48.6098 39.8623 49.7638C40.0386 49.9161 40.2651 50 40.5 50C40.7349 50 40.9614 49.9161 41.1377 49.7639C42.4754 48.6097 43.7623 47.5277 44.8983 46.5726C51.5835 40.952 56 37.2388 56 31.8117C56 26.7882 52.4599 23 47.7656 23Z" fill="#39DE4A"/>
</g>
<defs>
<filter id="filter0_d" x="0" y="0" width="80" height="80" filterUnits="userSpaceOnUse" color-interpolation-filters="sRGB">
<feFlood flood-opacity="0" result="BackgroundImageFix"/>
<feColorMatrix in="SourceAlpha" type="matrix" values="0 0 0 0 0 0 0 0 0 0 0 0 0 0 0 0 0 0 127 0"/>
<feOffset dy="5"/>
<feGaussianBlur stdDeviation="5"/>
<feColorMatrix type="matrix" values="0 0 0 0 0.741667 0 0 0 0 0.735486 0 0 0 0 0.735486 0 0 0 0.15 0"/>
<feBlend mode="normal" in2="BackgroundImageFix" result="effect1_dropShadow"/>
<feBlend mode="normal" in="SourceGraphic" in2="effect1_dropShadow" result="shape"/>
</filter>
</defs>
</svg>
