<svg width="103" height="66" viewBox="0 0 103 66" fill="none" xmlns="http://www.w3.org/2000/svg">
<g clip-path="url(#clip0)">
<path d="M27.0231 59.5943C26.8701 59.5457 26.7106 59.5204 26.5499 59.519C26.6732 59.3422 26.7598 59.1429 26.8047 58.9325C26.8496 58.7222 26.8519 58.5051 26.8114 58.2939C26.7694 58.0728 26.6769 57.8641 26.5409 57.6841C26.405 57.5041 26.2292 57.3575 26.0271 57.2557C25.841 57.1805 25.6394 57.1506 25.4392 57.1687C25.2391 57.1868 25.0463 57.2522 24.8768 57.3595C24.606 57.5106 24.3975 57.7516 24.288 58.0403C24.1785 58.3289 24.175 58.6467 24.2782 58.9376C24.3028 59.0123 24.3563 59.0742 24.4269 59.1097C24.4975 59.1453 24.5794 59.1515 24.6546 59.1271C24.7299 59.1026 24.7922 59.0495 24.828 58.9794C24.8638 58.9093 24.8701 58.828 24.8455 58.7533C24.7884 58.5932 24.7895 58.4184 24.8487 58.2591C24.908 58.0998 25.0215 57.9661 25.1696 57.8812C25.2627 57.8227 25.3675 57.785 25.4768 57.7706C25.586 57.7563 25.697 57.7657 25.8023 57.7981C25.9174 57.8673 26.0158 57.9609 26.0903 58.0722C26.1649 58.1834 26.2138 58.3097 26.2336 58.4418C26.3643 58.961 25.7735 59.6124 25.5304 59.8175C25.4663 59.8636 25.4232 59.9331 25.4107 60.0108C25.3982 60.0884 25.4173 60.1678 25.4637 60.2315C25.5102 60.2952 25.5802 60.3379 25.6584 60.3503C25.7366 60.3627 25.8166 60.3438 25.8807 60.2977C26.0241 60.2085 26.1846 60.15 26.3521 60.1259C26.5195 60.1018 26.6902 60.1125 26.8532 60.1575C27.0169 60.2185 27.1663 60.3122 27.2922 60.4327C27.4181 60.5532 27.5178 60.6981 27.5852 60.8583C27.8178 61.3307 28.0296 62.0549 27.8623 62.5376C27.831 62.632 27.7805 62.7189 27.7139 62.793C27.6474 62.8671 27.5662 62.9269 27.4754 62.9685C27.3777 63.0235 27.2693 63.0571 27.1574 63.067C27.0456 63.0768 26.9329 63.0627 26.827 63.0256C26.5361 62.8586 26.3167 62.5919 26.2101 62.2755C26.1839 62.2014 26.1296 62.1404 26.0588 62.1055C25.988 62.0706 25.9063 62.0646 25.831 62.0886C25.7567 62.114 25.6955 62.1675 25.6607 62.2375C25.6259 62.3075 25.6204 62.3884 25.6454 62.4624C25.6454 62.4961 25.9304 63.2929 26.597 63.5681C26.7436 63.6321 26.9021 63.6648 27.0623 63.6641C27.2967 63.6613 27.5274 63.6054 27.7368 63.5006C27.8991 63.4246 28.0439 63.3163 28.1622 63.1823C28.2804 63.0483 28.3697 62.8916 28.4243 62.7219C28.7119 61.8991 28.2649 60.8843 28.1211 60.591C28.0197 60.3584 27.8709 60.1491 27.6842 59.9763C27.4976 59.8034 27.2769 59.6707 27.0362 59.5865" fill="#007DC3"/>
<path d="M31.9797 55.4984C31.9559 55.4275 31.9059 55.3683 31.8396 55.3328C31.7734 55.2973 31.6961 55.2883 31.6234 55.3075C31.5506 55.3267 31.4881 55.3727 31.4484 55.4362C31.4087 55.4996 31.3949 55.5758 31.4098 55.649C31.6712 56.573 31.9326 57.5152 32.194 58.4392C32.194 58.8441 31.9326 59.2698 31.4908 59.2179C31.1509 59.1504 30.947 58.7948 30.8163 58.5119C30.6935 58.2023 30.5947 57.8839 30.5209 57.5593C30.3824 57.0402 30.236 56.5211 30.0922 55.989C30.0688 55.9184 30.0191 55.8594 29.9532 55.8241C29.8874 55.7888 29.8104 55.7799 29.7382 55.7992C29.6659 55.8184 29.6038 55.8644 29.5646 55.9277C29.5255 55.991 29.5122 56.0668 29.5275 56.1395L30.0504 58.1096C30.1515 58.5311 30.3383 58.9277 30.5994 59.275C30.7442 59.4753 30.9459 59.6283 31.1788 59.7143C31.4116 59.8003 31.6649 59.8154 31.9065 59.7578C32.1229 59.6988 32.3144 59.5723 32.4528 59.397C32.6489 60.1263 32.8659 60.8505 33.0646 61.5773C33.0847 61.6519 33.1338 61.7156 33.2012 61.7543C33.2686 61.793 33.3488 61.8036 33.424 61.7836C33.4992 61.7636 33.5634 61.7148 33.6024 61.6479C33.6413 61.581 33.6519 61.5014 33.6318 61.4267C33.075 59.4437 32.5025 57.4866 31.9483 55.5036" fill="#007DC3"/>
<path d="M36.1363 54.3822C36.1216 54.4126 36.111 54.4449 36.1049 54.4782C35.9193 56.0952 35.6945 57.6837 35.4749 59.2904C35.1742 57.8135 34.8815 56.3496 34.5808 54.8779C34.5638 54.8033 34.5178 54.7383 34.4529 54.697C34.3879 54.6558 34.3092 54.6417 34.2338 54.6578C34.1584 54.6739 34.0925 54.7188 34.0502 54.7828C34.008 54.8469 33.993 54.9249 34.0083 54.9999C34.4057 57.0167 34.8187 59.0334 35.2318 61.0476C35.305 61.385 35.7938 61.2786 35.8226 60.9931C36.0317 59.4357 36.2618 57.8524 36.4709 56.2847C36.7637 57.7279 37.0513 59.158 37.344 60.6037C37.3709 60.6666 37.4191 60.718 37.4803 60.7491C37.5414 60.7802 37.6117 60.7889 37.6787 60.7738C37.7457 60.7586 37.8052 60.7205 37.8468 60.6662C37.8884 60.6118 37.9094 60.5447 37.9061 60.4766C37.4931 58.4624 37.0774 56.4456 36.68 54.4263C36.6638 54.3681 36.6299 54.3164 36.5829 54.2781C36.5359 54.2398 36.4782 54.2168 36.4176 54.2123C36.357 54.2077 36.2965 54.2218 36.2443 54.2527C36.192 54.2836 36.1507 54.3297 36.1258 54.3848" fill="#007DC3"/>
<path d="M41.566 58.8232C41.5111 59.1451 41.3987 59.5422 41.0432 59.6486C40.9573 59.679 40.8657 59.6897 40.7751 59.6798C40.6845 59.6699 40.5974 59.6397 40.5203 59.5915C40.0733 59.3138 39.8851 58.6649 39.7596 58.1977C39.6463 57.7777 39.559 57.3512 39.4982 56.9207C39.4145 56.47 39.3664 56.0135 39.3544 55.5554C39.3544 55.1531 39.391 54.5587 39.7334 54.2991C40.17 53.9539 40.5465 54.3459 40.6641 54.7638C40.753 55.1142 41.3333 55.0233 41.2261 54.6755C41.1937 54.4693 41.1142 54.2733 40.9936 54.1023C40.8731 53.9313 40.7148 53.79 40.5308 53.6892C40.3414 53.6063 40.1329 53.576 39.9275 53.6016C39.7222 53.6272 39.5277 53.7077 39.3648 53.8345C38.6093 54.473 38.7322 55.7189 38.8681 56.5832C38.9455 57.4612 39.1452 58.3242 39.4616 59.1477C39.6759 59.633 40.0288 60.1002 40.5569 60.2274C40.7249 60.2646 40.8988 60.2672 41.0679 60.235C41.2369 60.2029 41.3976 60.1367 41.5399 60.0405C41.7096 59.8969 41.8492 59.7213 41.9506 59.524C42.052 59.3267 42.1132 59.1115 42.1307 58.8907C42.1934 58.5169 41.6261 58.4676 41.5608 58.8232" fill="#007DC3"/>
<path d="M44.8076 52.9807L42.2143 53.2636C42.141 53.2772 42.0756 53.3178 42.0312 53.3773C41.9868 53.4368 41.9667 53.5108 41.975 53.5844C41.9832 53.658 42.0193 53.7258 42.0758 53.7742C42.1323 53.8225 42.2051 53.8478 42.2797 53.845L43.3071 53.7308C43.5685 55.6697 43.7907 57.6241 44.0417 59.5501C44.0458 59.587 44.0572 59.6229 44.0753 59.6555C44.0933 59.6881 44.1177 59.7168 44.1469 59.7401C44.1762 59.7633 44.2098 59.7806 44.2457 59.791C44.2817 59.8014 44.3194 59.8046 44.3567 59.8005C44.3939 59.7964 44.43 59.7851 44.4628 59.7672C44.4957 59.7492 44.5246 59.7251 44.5481 59.696C44.5715 59.667 44.5889 59.6336 44.5994 59.5979C44.6098 59.5622 44.6131 59.5247 44.609 59.4878C44.3763 57.5463 44.1436 55.5944 43.8927 53.6685L44.8704 53.5595C44.9477 53.5512 45.0185 53.5128 45.0673 53.4527C45.1161 53.3926 45.1388 53.3157 45.1305 53.2389C45.1222 53.1622 45.0835 53.0919 45.0229 53.0434C44.9624 52.995 44.8849 52.9724 44.8076 52.9807Z" fill="#007DC3"/>
<path d="M48.7054 52.8353C48.686 52.8635 48.6702 52.894 48.6584 52.9261C48.227 54.4835 47.7617 56.0408 47.2964 57.5981C47.2284 56.0927 47.1604 54.6028 47.0924 53.0948C47.0883 53.0177 47.0534 52.9454 46.9956 52.8938C46.9377 52.8422 46.8616 52.8156 46.784 52.8197C46.7063 52.8238 46.6335 52.8584 46.5815 52.9159C46.5296 52.9733 46.5027 53.0489 46.5069 53.126C46.5879 55.1843 46.6872 57.2399 46.7866 59.2956C46.8075 59.6356 47.3094 59.6097 47.3774 59.3294C47.8296 57.811 48.295 56.29 48.7472 54.7716C48.8126 56.2458 48.8753 57.6994 48.9459 59.184C48.9557 59.2567 48.9928 59.3231 49.0498 59.3698C49.1068 59.4165 49.1794 59.44 49.2532 59.4358C49.3269 59.4315 49.3963 59.3997 49.4475 59.3467C49.4986 59.2938 49.5277 59.2236 49.5289 59.1503C49.4295 57.0963 49.3363 55.0406 49.2492 52.9832C49.2412 52.9235 49.215 52.8677 49.1742 52.8231C49.1334 52.7786 49.0799 52.7474 49.0208 52.7339C48.9617 52.7204 48.8998 52.725 48.8434 52.7473C48.7871 52.7696 48.7389 52.8084 48.7054 52.8586" fill="#007DC3"/>
<path d="M52.5666 55.8331C52.8768 54.89 53.187 53.947 53.4973 53.0039C53.6201 52.6613 53.0502 52.5082 52.93 52.8508C52.7208 53.536 52.4803 54.2368 52.2555 54.9272L51.5837 52.8508C51.4634 52.5082 50.9092 52.6639 51.0294 53.0065C51.3222 53.9487 51.6333 54.8909 51.947 55.8357C51.5985 56.8964 51.2499 57.9589 50.9013 59.023C50.7811 59.3838 51.351 59.5214 51.4556 59.1762C51.717 58.3716 51.9784 57.5669 52.2398 56.7597C52.5143 57.5669 52.7627 58.3716 53.0241 59.1788C53.147 59.5214 53.6986 59.3838 53.5966 59.023C53.2515 57.9615 52.8881 56.8973 52.5509 55.8357" fill="#007DC3"/>
<path d="M59.3217 53.0949C58.7152 53.9229 58.0931 54.7353 57.4578 55.5243C57.5075 54.7197 57.5728 53.9177 57.6434 53.0949C57.6434 52.7367 57.0866 52.69 57.0578 53.0482C56.9062 55.1021 56.7528 57.1535 56.5977 59.2023C56.5911 59.2794 56.6157 59.3559 56.6659 59.415C56.7162 59.4742 56.788 59.5111 56.8657 59.5176C56.9433 59.5242 57.0204 59.4998 57.08 59.4499C57.1396 59.4 57.1767 59.3287 57.1833 59.2516C57.2565 58.3457 57.314 57.4554 57.3742 56.5496C57.4683 56.4536 57.5467 56.3394 57.6016 56.29C58.1532 57.3672 58.7022 58.4599 59.2355 59.5553C59.2701 59.6241 59.3309 59.6764 59.4045 59.7008C59.478 59.7251 59.5583 59.7195 59.6276 59.685C59.6969 59.6506 59.7497 59.5903 59.7742 59.5173C59.7987 59.4442 59.793 59.3645 59.7583 59.2957C59.1832 58.1147 58.5871 56.9467 57.9911 55.7813C58.6656 54.9248 59.2329 54.1798 59.7975 53.4167C60.0302 53.1105 59.5544 52.7782 59.3217 53.0845" fill="#007DC3"/>
<path d="M62.1451 59.2618C61.9938 59.3635 61.8115 59.4096 61.6296 59.392C61.4478 59.3745 61.2778 59.2945 61.1491 59.1658C60.8118 58.8128 60.953 58.1276 61.3373 57.868C61.8026 57.5124 62.3411 57.7746 62.6732 58.1613C62.6026 58.5688 62.4902 59.0204 62.1503 59.2696L62.1451 59.2618ZM62.9921 53.3984C62.315 53.1207 61.7059 53.51 61.4837 54.1356C61.3687 54.4834 61.8967 54.7066 62.03 54.3614C62.1215 54.0629 62.3098 53.8267 62.6627 53.9098C62.7461 53.9361 62.8212 53.9834 62.8808 54.047C62.9403 54.1107 62.9823 54.1886 63.0025 54.2731C63.1777 54.9039 63.0025 55.6384 62.9137 56.2691C62.864 56.6585 62.8091 57.066 62.7751 57.4605C62.5439 57.2719 62.2609 57.1569 61.9629 57.1305C61.6649 57.1041 61.3657 57.1675 61.1046 57.3126C60.7797 57.5194 60.5431 57.8378 60.4399 58.207C60.3366 58.5762 60.3741 58.9703 60.5452 59.3137C60.7106 59.5889 60.9692 59.7967 61.2748 59.8999C61.5804 60.0031 61.9129 59.995 62.213 59.877C62.392 59.7958 62.5543 59.6822 62.6914 59.5421C62.697 59.6657 62.7101 59.7888 62.7307 59.9107C62.7362 59.9479 62.749 59.9836 62.7684 60.0158C62.7878 60.0481 62.8134 60.0762 62.8437 60.0986C62.874 60.121 62.9085 60.1373 62.9452 60.1465C62.9819 60.1556 63.02 60.1576 63.0574 60.1521C63.0949 60.1466 63.1308 60.1339 63.1633 60.1147C63.1958 60.0954 63.2241 60.07 63.2467 60.0399C63.2693 60.0097 63.2856 59.9755 63.2949 59.9391C63.3041 59.9027 63.3061 59.8648 63.3006 59.8277C63.1254 58.7687 63.3293 57.6007 63.4705 56.5313C63.5862 55.8932 63.6431 55.2459 63.6404 54.5976C63.6117 54.1304 63.4548 53.6061 62.979 53.3906" fill="#007DC3"/>
<path d="M72.4137 55.1427C71.721 54.9766 71.023 54.7897 70.3224 54.6418C70.247 54.6266 70.1686 54.6403 70.1031 54.6803C70.0376 54.7203 69.9898 54.7836 69.9695 54.8572C69.4675 56.835 68.9473 58.8258 68.4427 60.827C68.4244 60.9021 68.4368 60.9813 68.4772 61.0472C68.5177 61.1132 68.5829 61.1605 68.6584 61.1787C68.734 61.197 68.8138 61.1847 68.8802 61.1445C68.9466 61.1043 68.9943 61.0396 69.0126 60.9646C69.4937 59.0672 69.9721 57.1725 70.4583 55.2543L71.985 55.6229C71.4988 57.5332 71.0021 59.4254 70.5211 61.3202C70.5105 61.3927 70.5277 61.4664 70.5692 61.527C70.6106 61.5876 70.6734 61.6305 70.7452 61.6474C70.817 61.6643 70.8925 61.654 70.957 61.6184C71.0214 61.5828 71.0702 61.5246 71.0936 61.4552C71.5981 59.4618 72.1027 57.4658 72.6203 55.4853C72.6371 55.4104 72.6242 55.3319 72.5843 55.2662C72.5444 55.2005 72.4805 55.1525 72.4059 55.1324" fill="#007DC3"/>
<path d="M74.0554 61.7873C73.8884 61.8643 73.6995 61.8804 73.5217 61.833C73.3439 61.7855 73.1886 61.6775 73.0829 61.5278C72.8085 61.128 73.0516 60.4895 73.4751 60.2689C73.9979 59.9886 74.4842 60.3312 74.7508 60.7673C74.6175 61.1566 74.4345 61.5849 74.0554 61.7769V61.7873ZM75.8122 56.1186C75.1848 55.7371 74.5234 56.0278 74.207 56.6118C74.0371 56.9388 74.5234 57.2425 74.709 56.9206C74.8475 56.6403 75.0697 56.4353 75.407 56.5702C75.4879 56.6104 75.5569 56.6708 75.6074 56.7454C75.6578 56.82 75.6878 56.9063 75.6945 56.9959C75.773 57.6422 75.4749 58.343 75.2946 58.9504C75.1821 59.3293 75.0671 59.729 74.9704 60.108C74.772 59.8857 74.5106 59.7282 74.2204 59.6559C73.9303 59.5837 73.6249 59.6001 73.3444 59.7031C72.9909 59.8569 72.707 60.1347 72.5469 60.4833C72.3867 60.8319 72.3617 61.2268 72.4764 61.5927C72.5972 61.8918 72.8216 62.1383 73.1092 62.2877C73.3967 62.4371 73.7286 62.4797 74.045 62.4077C74.2337 62.3534 74.4108 62.2654 74.5678 62.1481C74.5529 62.2704 74.5459 62.3935 74.5469 62.5167C74.5469 62.8904 75.1351 62.9034 75.122 62.5167C75.122 61.4421 75.5011 60.3208 75.8096 59.2852C76.0234 58.6744 76.18 58.0453 76.2775 57.406C76.3272 56.9362 76.2514 56.3963 75.8174 56.1082" fill="#007DC3"/>
<path d="M80.408 57.5852L77.9454 56.7339C77.8719 56.7087 77.7914 56.7136 77.7215 56.7475C77.6516 56.7813 77.5982 56.8413 77.5729 56.9143C77.5476 56.9872 77.5525 57.0672 77.5866 57.1366C77.6206 57.2059 77.6811 57.259 77.7546 57.2841L78.7297 57.6241C78.1153 59.48 77.4853 61.3306 76.8683 63.189C76.7455 63.5446 77.3023 63.7393 77.4095 63.3759C78.0395 61.5227 78.6695 59.672 79.2865 57.8162L80.2145 58.1355C80.2853 58.1514 80.3595 58.1408 80.4229 58.1059C80.4864 58.071 80.5347 58.0141 80.5586 57.9461C80.5825 57.878 80.5803 57.8037 80.5526 57.7371C80.5248 57.6706 80.4733 57.6165 80.408 57.5852Z" fill="#007DC3"/>
<path d="M67.9016 55.7812C67.6611 56.5599 66.7409 56.4976 66.0716 56.3159C66.1971 55.6774 66.333 55.0545 66.4428 54.4341C66.8364 54.4739 67.2197 54.5828 67.5748 54.756C67.9539 54.9688 68.0166 55.3659 67.9016 55.7812ZM68.1003 54.4056C67.6009 54.011 66.8977 53.9098 66.2964 53.8268C66.2568 53.8155 66.2152 53.8124 66.1743 53.8177C66.1334 53.8229 66.094 53.8364 66.0585 53.8573C66.023 53.8782 65.9922 53.9061 65.9679 53.9392C65.9437 53.9723 65.9265 54.01 65.9174 54.05C65.1331 58.0913 65.507 56.0382 64.7279 60.0795C64.713 60.1552 64.729 60.2337 64.7724 60.2977C64.8158 60.3617 64.883 60.406 64.9593 60.4208C65.0355 60.4356 65.1146 60.4197 65.1791 60.3766C65.2435 60.3335 65.2881 60.2668 65.303 60.1911C65.4651 59.4124 65.8259 57.6915 65.9801 56.8765C66.9971 57.1127 68.1055 57.0634 68.4453 55.9551C68.5511 55.691 68.5748 55.4015 68.5133 55.1239C68.4518 54.8463 68.3079 54.5934 68.1003 54.3978" fill="#007DC3"/>
<path d="M94.1274 42.4894C93.3065 44.7294 92.4856 46.9694 91.6569 49.2379L88.0206 47.6546C88.6584 46.5515 89.359 45.2667 90.1511 43.7976C92.1798 40.0444 95.3508 34.1758 97.6382 32.9222L94.1274 42.4894ZM99.8368 30.5992C95.5939 28.7278 91.7589 35.8188 88.0572 42.6711C86.4886 45.5911 84.0966 50.0062 83.0901 50.3125C82.7781 50.3624 82.4989 50.5333 82.3138 50.7876C82.1287 51.042 82.053 51.3589 82.1033 51.6687C82.1535 51.9784 82.3257 52.2557 82.5819 52.4394C82.838 52.6232 83.1572 52.6984 83.4692 52.6485C84.5698 52.4798 85.5763 51.4909 86.7762 49.6843L90.8439 51.4519L89.7041 54.5666C89.6508 54.7121 89.6269 54.8667 89.6338 55.0214C89.6407 55.1761 89.6782 55.328 89.7443 55.4683C89.8103 55.6085 89.9036 55.7345 90.0187 55.839C90.1338 55.9435 90.2685 56.0245 90.4152 56.0772C90.5448 56.1251 90.682 56.1497 90.8204 56.1499C91.0645 56.1499 91.3027 56.0751 91.5025 55.9357C91.7022 55.7964 91.8538 55.5993 91.9366 55.3712C93.4346 51.291 94.8959 47.3016 96.3599 43.3122C97.7167 39.6006 99.0787 35.8889 100.472 32.0968C100.575 31.8158 100.567 31.5064 100.449 31.2312C100.331 30.956 100.112 30.7356 99.8368 30.6147" fill="#051F2A"/>
<path d="M46.75 25.4366C46.75 25.4055 46.75 25.3795 46.7369 25.3484V25.2186C46.7103 24.9122 46.564 24.6283 46.3294 24.4275C46.0948 24.2267 45.7904 24.1249 45.4812 24.1438C45.1721 24.1628 44.8826 24.301 44.6747 24.529C44.4668 24.757 44.3569 25.0566 44.3684 25.3639L44.3946 25.7818C44.4756 28.5487 43.0875 31.6166 41.7412 34.5886C41.2837 35.5982 40.821 36.6157 40.4105 37.6384L38.7165 25.8441C38.6597 25.5455 38.4891 25.2801 38.2402 25.1032C37.9913 24.9263 37.6833 24.8514 37.3803 24.8942C37.0772 24.937 36.8025 25.0942 36.6131 25.333C36.4238 25.5718 36.3345 25.8738 36.3637 26.1763L39.3335 46.863C39.3743 47.1439 39.5157 47.4008 39.7317 47.5867C39.9478 47.7726 40.224 47.875 40.5099 47.8753C40.5659 47.8761 40.6219 47.8718 40.6772 47.8623C40.9888 47.8185 41.2702 47.6537 41.4594 47.404C41.6487 47.1543 41.7303 46.8402 41.6863 46.5308L41.383 44.4309C41.0928 41.7653 42.4601 38.7519 43.9057 35.5619C44.2299 34.8455 44.5567 34.124 44.8678 33.3998L45.652 46.1752C45.6713 46.4743 45.8043 46.7549 46.0242 46.9602C46.2441 47.1655 46.5344 47.2802 46.8363 47.2809H46.9121C47.0678 47.2713 47.2201 47.2313 47.3603 47.1632C47.5004 47.0951 47.6257 47.0003 47.7289 46.8841C47.8321 46.7679 47.9112 46.6326 47.9617 46.486C48.0121 46.3395 48.033 46.1844 48.0231 46.0298L46.7552 25.6754C46.7552 25.5975 46.7552 25.5223 46.7552 25.4444" fill="#051F2A"/>
<path d="M74.0424 27.5597C74.0567 27.4948 74.0645 27.4288 74.0659 27.3624L74.0842 27.2716C74.1473 26.9652 74.0853 26.6466 73.9117 26.3856C73.7382 26.1247 73.4673 25.943 73.1588 25.8803C72.8503 25.8177 72.5293 25.8793 72.2665 26.0516C72.0037 26.2239 71.8207 26.4928 71.7576 26.7992L71.6425 27.3494C70.9864 29.727 68.9839 32.0837 67.0389 34.3574C66.3671 35.1361 65.6926 35.9381 65.06 36.748L66.3671 25.8648C66.3956 25.7068 66.3914 25.5446 66.3546 25.3883C66.3178 25.232 66.2493 25.0848 66.1531 24.9557C66.057 24.8266 65.9353 24.7184 65.7955 24.6377C65.6558 24.557 65.5009 24.5055 65.3403 24.4864C65.1798 24.4673 65.017 24.4809 64.862 24.5265C64.7069 24.5721 64.5629 24.6486 64.4388 24.7514C64.3146 24.8543 64.2129 24.9812 64.1399 25.1244C64.0669 25.2677 64.0241 25.4242 64.0143 25.5844L61.5099 46.3697C61.4916 46.524 61.5043 46.6803 61.547 46.8297C61.5897 46.9791 61.6617 47.1187 61.7588 47.2405C61.856 47.3622 61.9763 47.4638 62.113 47.5393C62.2498 47.6148 62.4001 47.6627 62.5555 47.6805C62.6026 47.683 62.6497 47.683 62.6967 47.6805C62.987 47.68 63.2671 47.5743 63.4842 47.383C63.7014 47.1918 63.8406 46.9283 63.8757 46.6422L64.2548 43.5016C64.2548 43.4653 64.2731 43.4315 64.2757 43.3926C64.5633 40.919 66.6494 38.461 68.861 35.8655C69.3185 35.3256 69.7812 34.7805 70.2335 34.2329L67.5644 47.2107C67.5331 47.3624 67.5322 47.5187 67.5617 47.6707C67.5913 47.8227 67.6508 47.9675 67.7367 48.0967C67.8226 48.2259 67.9334 48.337 68.0626 48.4237C68.1918 48.5104 68.337 48.5709 68.4898 48.6019C68.569 48.6181 68.6495 48.6268 68.7303 48.6278C69.0039 48.6277 69.2691 48.5336 69.4807 48.3613C69.6923 48.1891 69.8373 47.9494 69.891 47.6831L73.9718 27.827C73.9979 27.7258 74.0267 27.6271 74.0502 27.5259" fill="#051F2A"/>
<path d="M58.412 24.0297C58.0974 24.0134 57.7892 24.1214 57.5545 24.33C57.3199 24.5386 57.178 24.831 57.1598 25.1432L56.467 37.7395L56.2918 37.5863L55.8866 37.2307C55.7193 37.0828 55.5468 36.9348 55.3638 36.7895C53.6907 35.3775 51.798 33.776 53.011 25.1432C53.0325 24.9898 53.0233 24.8337 52.984 24.6839C52.9447 24.534 52.8761 24.3933 52.782 24.2698C52.6879 24.1463 52.5703 24.0423 52.4358 23.964C52.3012 23.8856 52.1525 23.8343 51.998 23.813C51.8435 23.7917 51.6863 23.8008 51.5354 23.8398C51.3844 23.8788 51.2427 23.947 51.1183 24.0404C50.9939 24.1338 50.8892 24.2506 50.8103 24.3841C50.7314 24.5177 50.6797 24.6654 50.6582 24.8188C49.3773 33.9889 51.3379 36.478 53.8293 38.5752C53.9887 38.7102 54.143 38.8348 54.2894 38.9724L54.7233 39.3539C55.6749 40.1819 56.2579 40.7244 56.2265 41.4537C56.2226 41.5406 56.2287 41.6277 56.2448 41.7133L56.0043 45.9882C55.9944 46.1432 56.0154 46.2986 56.0662 46.4455C56.1171 46.5924 56.1966 46.7279 56.3004 46.8442C56.4041 46.9605 56.53 47.0552 56.6707 47.123C56.8115 47.1908 56.9644 47.2303 57.1206 47.2392H57.1859C57.4895 47.2391 57.7815 47.1236 58.0022 46.9166C58.2228 46.7096 58.3554 46.4267 58.3728 46.1257L59.5309 25.2834C59.5397 25.1288 59.5177 24.974 59.4663 24.8278C59.4148 24.6816 59.3348 24.547 59.2309 24.4315C59.127 24.316 59.0012 24.222 58.8607 24.1549C58.7202 24.0877 58.5677 24.0487 58.412 24.0401" fill="#051F2A"/>
<path d="M87.435 29.4026C87.2874 29.3525 87.1312 29.3318 86.9755 29.3417C86.8199 29.3516 86.6677 29.392 86.5278 29.4605C86.3878 29.529 86.2629 29.6242 86.1602 29.7408C86.0575 29.8574 85.979 29.993 85.9292 30.1398L82.8261 39.2242L78.6434 37.955L81.2314 28.6395C81.3034 28.3415 81.2559 28.0273 81.0989 27.7634C80.9418 27.4995 80.6876 27.3065 80.3899 27.2253C80.0923 27.1441 79.7744 27.181 79.5036 27.3281C79.2328 27.4753 79.0303 27.7213 78.9388 28.014L73.2999 48.3269C73.216 48.6284 73.2562 48.9506 73.4116 49.2227C73.567 49.4948 73.8249 49.6945 74.1286 49.7778C74.4323 49.8611 74.7569 49.8212 75.0309 49.6669C75.305 49.5126 75.5061 49.2565 75.59 48.955L78.0473 40.1119L82.0915 41.3448L79.1662 49.9102C79.0657 50.2065 79.0878 50.5304 79.2274 50.8106C79.3671 51.0909 79.613 51.3047 79.9113 51.4052C80.0343 51.4463 80.1632 51.4673 80.2929 51.4675C80.5409 51.4676 80.7827 51.3905 80.9843 51.2471C81.186 51.1037 81.3373 50.9012 81.417 50.6681L88.1774 30.8873C88.278 30.5913 88.2563 30.2677 88.1172 29.9875C87.978 29.7073 87.7327 29.4933 87.435 29.3922" fill="#051F2A"/>
<path d="M18.1505 46.7488C17.9361 45.6613 17.6747 44.4569 17.3819 43.1332C16.8774 40.8491 16.3571 38.4897 16.1245 36.6728C15.9363 35.1856 15.9232 34.0357 16.0853 33.2519L21.7529 45.4225L18.1505 46.7488ZM31.4621 26.994C31.3905 26.6884 31.1997 26.4235 30.9316 26.2576C30.6634 26.0916 30.3399 26.0381 30.0321 26.1089L29.5511 26.2179C26.0716 26.9732 23.5671 28.2943 25.52 37.724C25.716 38.6766 25.8964 39.5176 26.0637 40.2936C26.5343 42.4869 26.8741 44.0728 27.146 46.0584C27.3185 47.3224 27.044 48.288 26.4428 48.5138C26.2526 48.5728 26.0537 48.5991 25.8546 48.5916L17.4237 30.5058C17.2957 30.2296 17.0649 30.0134 16.7797 29.9026C16.4946 29.7918 16.1773 29.7949 15.8944 29.9114C13.0188 31.0846 13.5652 35.3621 13.7691 36.9661C14.0122 38.8894 14.5533 41.3033 15.0605 43.6367C15.7977 46.972 16.8068 51.535 16.3101 52.6355C16.1973 52.9185 16.1988 53.2338 16.3144 53.5157C16.43 53.7975 16.6508 54.0242 16.9306 54.1484C17.2105 54.2726 17.5278 54.2847 17.8165 54.1823C18.1051 54.0798 18.3428 53.8707 18.4799 53.5985C18.906 52.6537 18.8851 51.1742 18.5714 49.1108L22.7541 47.5534L23.9331 50.0945C24.0031 50.243 24.1034 50.3755 24.2276 50.4836C24.3518 50.5917 24.4972 50.6731 24.6547 50.7226C25.0514 50.886 25.4773 50.9681 25.9069 50.964C26.3787 50.9649 26.8473 50.8859 27.2924 50.7304C28.6178 50.2243 29.9066 48.6539 29.5014 45.7521C29.2165 43.6756 28.8505 41.973 28.3877 39.8134C28.2231 39.0348 28.0427 38.2042 27.8466 37.2594C27.0623 33.527 27.0022 31.0301 27.6375 29.8024C27.9773 29.1509 28.5315 28.8991 29.4125 28.6785L33.8567 47.8857C33.9359 48.18 34.1268 48.4324 34.3893 48.59C34.6519 48.7476 34.9657 48.7981 35.2649 48.7309C35.5642 48.6638 35.8257 48.4842 35.9944 48.2298C36.1632 47.9754 36.2262 47.666 36.1703 47.3665L31.4621 26.994Z" fill="#051F2A"/>
<path d="M5.05851 33.0494L9.61247 31.1209C9.75597 31.0602 9.88603 30.972 9.99522 30.8615C10.1044 30.7509 10.1906 30.62 10.2489 30.4764C10.3071 30.3327 10.3363 30.1791 10.3348 30.0243C10.3332 29.8694 10.301 29.7164 10.2399 29.5739C10.1788 29.4314 10.09 29.3023 9.97863 29.1939C9.86725 29.0855 9.73547 28.9999 9.59079 28.942C9.44611 28.8842 9.29137 28.8552 9.1354 28.8567C8.97944 28.8583 8.82531 28.8903 8.68181 28.951L3.04557 31.3363C2.75836 31.4583 2.53102 31.6875 2.41265 31.9746C2.29428 32.2616 2.29438 32.5833 2.41293 32.8703L11.8528 55.6022C11.9444 55.8167 12.0977 55.9995 12.2935 56.1279C12.4893 56.2562 12.7188 56.3244 12.9534 56.3238C13.1085 56.3234 13.262 56.2934 13.4057 56.2355C13.6967 56.1155 13.928 55.8859 14.049 55.597C14.17 55.308 14.1709 54.9833 14.0514 54.6938L5.05851 33.0494Z" fill="#051F2A"/>
<path d="M40.489 7.02093L39.5034 8.39138L38.9806 6.11767C39.4485 6.37723 39.9687 6.68091 40.4968 7.02093H40.489ZM44.1279 10.6417C44.1625 10.7385 44.1763 10.8412 44.1687 10.9436C44.161 11.0459 44.132 11.1455 44.0835 11.2361C43.9914 11.3767 43.8717 11.4974 43.7316 11.5911C43.5914 11.6847 43.4337 11.7494 43.2679 11.7812C42.813 11.898 42.1045 12.0407 41.4379 12.1627L43.4535 9.51786C43.7409 9.8518 43.9689 10.2318 44.1279 10.6417ZM42.528 8.54971L40.2406 11.5554L39.9034 10.1226L41.5843 7.78662C41.9137 8.04617 42.2326 8.29016 42.528 8.56529V8.54971ZM49.3799 11.2725C48.9329 11.2725 48.6296 11.0285 48.6244 10.6677C48.6491 10.212 48.7535 9.76409 48.9329 9.34396L51.717 11.1037V11.2647H49.3799V11.2725ZM55.3769 11.2647H53.9914L55.9442 9.671C56.0579 9.98465 56.1222 10.3138 56.135 10.6469C56.135 11.0129 55.8318 11.2413 55.3743 11.2543L55.3769 11.2647ZM50.0387 7.13773L51.717 8.2668V9.52045L49.4845 8.10847C49.6492 7.78662 49.8295 7.45439 50.0204 7.11956C50.0204 7.11956 50.0204 7.13254 50.0387 7.13773ZM51.717 6.66533L50.789 6.0398C50.7588 6.02418 50.7273 6.01116 50.6948 6.00087C51.0373 5.4584 51.3876 4.93409 51.717 4.4643V6.66533ZM54.2502 6.31493L53.0502 7.30644V4.47987C53.4424 5.03532 53.858 5.66345 54.2554 6.31234L54.2502 6.31493ZM55.4187 8.38879L53.0659 10.3017V9.02989L54.9508 7.47255C55.1251 7.78748 55.2845 8.09376 55.4292 8.39138L55.4187 8.38879ZM60.6576 11.2465C60.6089 11.1559 60.58 11.0562 60.5728 10.9537C60.5656 10.8513 60.5802 10.7485 60.6158 10.6521C60.7712 10.2428 60.9957 9.86268 61.2798 9.52824L63.2927 12.1731C62.6392 12.0511 61.9281 11.9136 61.4628 11.7916C61.297 11.7595 61.1394 11.6947 60.9993 11.6011C60.8592 11.5075 60.7395 11.3869 60.6472 11.2465H60.6576ZM64.4927 11.5658L62.2026 8.5601C62.498 8.30054 62.8169 8.04098 63.1463 7.7944L64.8325 10.1226L64.4927 11.5658ZM65.2299 8.40436L64.2417 7.0365C64.7645 6.69648 65.2874 6.3902 65.7579 6.13324L65.2299 8.40436ZM67.1539 4.38124C67.0573 4.30258 66.9404 4.25258 66.8164 4.23697C66.6925 4.22136 66.5666 4.24077 66.4533 4.29299C66.2076 4.4046 60.4223 7.08322 59.3427 10.2239C59.2474 10.4924 59.2098 10.7778 59.2323 11.0617C59.2548 11.3455 59.3369 11.6216 59.4734 11.872C59.65 12.175 59.888 12.4382 60.1724 12.6451C60.4568 12.852 60.7814 12.998 61.1256 13.0738C61.8758 13.2659 63.2169 13.5124 64.0012 13.65L63.7555 14.7038C60.2025 14.2148 56.6234 13.9357 53.0372 13.868V12.5754H55.3717C56.5481 12.5754 57.4474 11.7552 57.463 10.6599C57.5127 8.12145 53.479 2.75641 52.9012 2.07638C52.8332 2.00256 52.7504 1.94365 52.6581 1.90342C52.5658 1.8632 52.4661 1.84254 52.3653 1.84278C52.2684 1.8429 52.1727 1.86385 52.0847 1.90417C51.9967 1.94449 51.9185 2.00324 51.8556 2.07638C51.2804 2.75122 47.2545 8.11625 47.2833 10.6599C47.2833 11.7526 48.1957 12.5728 49.3747 12.5728H51.7275V13.8525C48.133 13.9243 44.5461 14.2086 40.9857 14.7038L40.7242 13.6344C41.5085 13.4969 42.8548 13.2503 43.5999 13.0556C43.9442 12.9801 44.269 12.8346 44.5538 12.6282C44.8386 12.4218 45.0773 12.159 45.2547 11.8565C45.3902 11.6057 45.4716 11.3296 45.4936 11.0458C45.5157 10.762 45.4779 10.4768 45.3828 10.2083C44.3031 7.06765 38.5204 4.38902 38.2721 4.27741C38.1589 4.22573 38.0334 4.20659 37.9097 4.22216C37.7861 4.23772 37.6694 4.28737 37.5728 4.36548C37.4761 4.44358 37.4035 4.54701 37.3631 4.66403C37.3226 4.78106 37.316 4.90699 37.3441 5.02753L39.7831 15.4877C39.8086 15.5981 39.8624 15.7002 39.9394 15.7838C40.0163 15.8675 40.1138 15.93 40.2223 15.9652C40.3041 16.0034 40.3934 16.0229 40.4837 16.0223C40.5168 16.0249 40.55 16.0249 40.5831 16.0223C44.4952 15.4475 48.4422 15.1371 52.3967 15.0931C56.3517 15.1357 60.2994 15.4427 64.2129 16.012C64.2408 16.0145 64.2688 16.0145 64.2966 16.012H64.3097C64.4525 16.0155 64.5918 15.9676 64.7018 15.877C64.8263 15.7842 64.9142 15.651 64.9501 15.5006L67.3892 5.04051C67.4179 4.92012 67.4118 4.79412 67.3716 4.67702C67.3314 4.55992 67.2586 4.45649 67.1618 4.37864" fill="#007DC3"/>
<path d="M63.7711 17.102C60.0025 16.5235 56.1969 16.2147 52.3836 16.178C48.586 16.214 44.7959 16.5228 41.0432 17.102C40.8263 17.1522 40.6349 17.2782 40.5038 17.4569C40.3727 17.6356 40.3107 17.8551 40.3291 18.0754C40.3475 18.2958 40.445 18.5022 40.6039 18.657C40.7629 18.8119 40.9726 18.9048 41.1948 18.9189C41.2453 18.9226 41.2959 18.9226 41.3464 18.9189C45.0032 18.3625 48.6949 18.0624 52.3941 18.0208C56.1064 18.0622 59.8112 18.3632 63.481 18.9215C63.7186 18.9502 63.9583 18.8866 64.1499 18.744C64.3414 18.6014 64.4701 18.3908 64.5089 18.1562C64.5477 17.9216 64.4937 17.6812 64.3582 17.4852C64.2226 17.2893 64.016 17.1529 63.7816 17.1046" fill="#007DC3"/>
</g>
<defs>
<clipPath id="clip0">
<rect width="103" height="66" fill="white"/>
</clipPath>
</defs>
</svg>
