<svg width="96" height="21" viewBox="0 0 96 21" fill="none" xmlns="http://www.w3.org/2000/svg">
<path d="M27.075 8.51589H26.1991V7.12785H27.075V5.62725L28.8267 4.9895V7.12785H30.883V8.51589H28.8267V11.7797C28.8267 12.3049 28.9028 12.68 29.0932 12.9051C29.2455 13.1302 29.5502 13.2428 29.9691 13.2428C30.3879 13.2428 30.7687 13.1302 31.1495 12.9051V14.4807C30.7307 14.6308 30.1595 14.7058 29.3979 14.7058C28.6363 14.7058 28.0651 14.4808 27.6843 14.0681C27.2654 13.6554 27.075 13.0552 27.075 12.2674V8.51589Z" fill="#231F20"/>
<path d="M31.8731 10.8419C31.8731 9.71646 32.2158 8.77858 32.8632 8.0658C33.5106 7.35302 34.3864 7.01538 35.4907 7.01538C36.6331 7.01538 37.509 7.35301 38.1563 8.02828C38.8037 8.70355 39.1083 9.64143 39.1083 10.8419C39.1083 12.0424 38.8037 12.9803 38.1563 13.6555C37.509 14.3683 36.6331 14.7059 35.4907 14.7059C34.3483 14.7059 33.4725 14.3683 32.8251 13.6555C32.1777 12.9427 31.8731 12.0049 31.8731 10.8419ZM33.7009 10.8419C33.7009 12.4926 34.3102 13.2804 35.4907 13.2804C36.0238 13.2804 36.4808 13.0553 36.7854 12.6426C37.0901 12.23 37.2805 11.6297 37.2805 10.8419C37.2805 9.22876 36.6712 8.44095 35.4907 8.44095C34.9576 8.44095 34.5006 8.66604 34.196 9.0787C33.8533 9.49137 33.7009 10.0541 33.7009 10.8419Z" fill="#231F20"/>
<path d="M46.2673 7.72799L45.5057 9.04102C45.0868 8.66587 44.5537 8.47829 43.8302 8.47829C43.1448 8.47829 42.6497 8.70339 42.2689 9.11605C41.8881 9.56623 41.6977 10.1665 41.6977 10.9168C41.6977 12.4549 42.4593 13.2427 43.9444 13.2427C44.5918 13.2427 45.163 13.0176 45.658 12.6049L46.3054 13.9555C45.8104 14.2556 45.3534 14.4807 44.9726 14.5557C44.5918 14.6307 44.1348 14.6682 43.6017 14.6682C42.4212 14.6682 41.5073 14.3306 40.86 13.6553C40.1745 12.9801 39.8318 12.0422 39.8318 10.8792C39.8318 9.71629 40.2126 8.77841 40.9361 8.02811C41.6596 7.31533 42.6878 6.94019 43.9444 6.94019C44.8584 7.01522 45.62 7.2403 46.2673 7.72799Z" fill="#231F20"/>
<path d="M52.3983 14.5558V9.97894C52.3983 9.52876 52.246 9.15361 51.9794 8.89101C51.6747 8.62841 51.2939 8.47834 50.837 8.47834C50.5323 8.47834 50.2658 8.55338 49.9611 8.70343C49.6565 8.85349 49.4661 9.04107 49.3138 9.22864V14.5558H47.524V4.38923L49.3138 3.97656V7.61551C49.7707 7.20284 50.38 7.01527 51.1797 7.01527C52.1317 7.01527 52.8552 7.27787 53.3884 7.80308C53.9215 8.32829 54.188 9.04107 54.188 10.0165V14.5933H52.3983V14.5558Z" fill="#231F20"/>
<path d="M60.4713 14.5559L58.2626 11.1796L57.4249 12.0424V14.5184H55.6732V4.35187L57.4249 3.93921V9.97911L59.9381 7.12798H62.0706L59.5193 9.9416L62.6038 14.5559H60.4713Z" fill="#231F20"/>
<path d="M67.5161 13.8054C67.3638 14.068 67.0972 14.2931 66.6783 14.4432C66.2975 14.5932 65.8786 14.7058 65.4217 14.7058C64.622 14.7058 63.9746 14.5182 63.5177 14.1055C63.0607 13.6929 62.8322 13.1301 62.8322 12.4174C62.8322 11.5545 63.1749 10.8793 63.8223 10.3916C64.4697 9.90387 65.4217 9.67878 66.6021 9.67878C66.7925 9.67878 67.0591 9.71629 67.3257 9.79132C67.3257 8.92848 66.7545 8.4783 65.6501 8.4783C65.0028 8.4783 64.4316 8.59084 63.9746 8.81593L63.5938 7.4654C64.2031 7.16528 64.9266 7.05273 65.7644 7.05273C66.9068 7.05273 67.7446 7.31534 68.2777 7.84054C68.8108 8.36575 69.0773 9.34114 69.0773 10.7667V12.3423C69.0773 13.3177 69.2678 13.9555 69.6866 14.2181C69.5343 14.4807 69.382 14.6307 69.1916 14.6683C69.0012 14.7433 68.8108 14.7433 68.5823 14.7433C68.3158 14.7433 68.0873 14.6683 67.8969 14.4807C67.7446 14.2181 67.5922 14.0305 67.5161 13.8054ZM67.3637 11.0668C67.0591 10.9918 66.8306 10.9918 66.6783 10.9918C65.3074 10.9918 64.5839 11.442 64.5839 12.3423C64.5839 13.0176 64.9647 13.3552 65.7644 13.3552C66.8306 13.3552 67.3637 12.83 67.3637 11.7796V11.0668Z" fill="#231F20"/>
<path d="M71.1337 13.6554C71.1337 13.3178 71.2479 13.0176 71.5145 12.755C71.743 12.5299 72.0476 12.3799 72.4284 12.3799C72.7712 12.3799 73.0758 12.4924 73.3424 12.755C73.5708 12.9801 73.7232 13.2802 73.7232 13.6554C73.7232 13.993 73.6089 14.2932 73.3424 14.5558C73.1139 14.8184 72.8092 14.9309 72.4284 14.9309C72.0857 14.9309 71.7811 14.8184 71.5145 14.5558C71.2479 14.2932 71.1337 13.993 71.1337 13.6554Z" fill="#231F20"/>
<path d="M80.0825 14.5558V10.2791C80.0825 9.64135 79.9683 9.19117 79.7017 8.89105C79.4732 8.59093 79.0543 8.44087 78.4831 8.44087C78.2166 8.44087 77.95 8.5159 77.6454 8.66596C77.3407 8.81602 77.1123 9.00359 76.9599 9.19117V14.5558H75.2463V7.12785H76.503L76.8457 7.80312C77.3407 7.24039 78.0262 6.97778 78.9782 6.97778C79.8921 6.97778 80.5775 7.24039 81.1107 7.7656C81.6438 8.29081 81.8723 9.04111 81.8723 9.97898V14.5183H80.0825V14.5558Z" fill="#231F20"/>
<path d="M90.2499 11.367H84.8806C84.9187 11.9673 85.1091 12.4174 85.4899 12.7551C85.8707 13.0927 86.3657 13.2428 87.0131 13.2428C87.8127 13.2428 88.422 13.0552 88.8409 12.6425L89.5263 13.9556C88.9171 14.4432 87.9651 14.7059 86.7465 14.7059C85.6041 14.7059 84.6902 14.3682 84.0047 13.693C83.3193 13.0177 83.0146 12.1173 83.0146 10.9168C83.0146 9.75389 83.3954 8.81602 84.119 8.06572C84.8425 7.35294 85.7183 6.97778 86.7465 6.97778C87.8508 6.97778 88.7267 7.31542 89.374 7.95317C90.0214 8.59093 90.3641 9.41625 90.3641 10.3916C90.4022 10.6167 90.326 10.9544 90.2499 11.367ZM84.9187 10.0915H88.6124C88.4982 9.00359 87.8889 8.47838 86.7846 8.47838C85.7945 8.44086 85.1471 9.00359 84.9187 10.0915Z" fill="#231F20"/>
<path d="M91.9254 8.51589H91.0496V7.12785H91.9254V5.62725L93.6771 4.9895V7.12785H95.7334V8.51589H93.6771V11.7797C93.6771 12.3049 93.7532 12.68 93.9436 12.9051C94.096 13.1302 94.4006 13.2428 94.8195 13.2428C95.2384 13.2428 95.6192 13.1302 96 12.9051V14.4807C95.5811 14.6308 95.0099 14.7058 94.2483 14.7058C93.4867 14.7058 92.9155 14.4808 92.5347 14.0681C92.1158 13.6554 91.9254 13.0552 91.9254 12.2674V8.51589Z" fill="#231F20"/>
<path d="M13.785 9.97909C14.0897 11.7048 12.9092 13.3179 11.1575 13.5805C9.40581 13.8806 7.76835 12.7177 7.50179 10.992C7.19715 9.26631 8.37763 7.65317 10.1293 7.35305C11.881 7.12796 13.5185 8.29092 13.785 9.97909Z" fill="#231F20"/>
<path d="M14.7751 0.825326C13.4423 0.262603 12.0333 0 10.6624 0C6.51171 0 2.55138 2.40095 0.837778 6.41504C-1.44703 11.7421 1.10434 17.8946 6.51171 20.1455C7.84452 20.7082 9.25348 20.9708 10.6244 20.9708C14.7751 20.9708 18.7354 18.5699 20.449 14.5558C22.7338 9.22865 20.1825 3.07622 14.7751 0.825326ZM17.5169 13.3553C16.3364 16.0939 13.6708 17.8571 10.6624 17.8571C9.67236 17.8571 8.68227 17.6695 7.76835 17.2943C5.94051 16.544 4.49346 15.1185 3.76994 13.2803C3.00834 11.4795 3.04642 9.45374 3.80802 7.65303C4.98851 4.91444 7.65411 3.15125 10.6624 3.15125C11.6525 3.15125 12.6426 3.33882 13.5565 3.71397C15.3844 4.46427 16.8314 5.88983 17.5549 7.69055C18.3165 9.52877 18.2785 11.5546 17.5169 13.3553Z" fill="#E01B22"/>
</svg>
