<svg width="38" height="38" viewBox="0 0 38 38" fill="none" xmlns="http://www.w3.org/2000/svg">
<circle cx="19" cy="19" r="19" fill="url(#paint0_linear)"/>
<path d="M28.1544 19.9127H23.1346V8.45819C23.1346 8.20515 22.9295 8 22.6764 8H15.3455C15.0925 8 14.8873 8.20515 14.8873 8.45819V19.9127H9.84735C9.5943 19.9128 9.3892 20.118 9.38928 20.371C9.38933 20.4922 9.43739 20.6085 9.52296 20.6944L18.6637 29.8653C18.7496 29.9515 18.8663 30 18.988 30C19.1096 30.0002 19.2264 29.9521 19.3124 29.8662L28.476 20.6953C28.6552 20.5166 28.6555 20.2265 28.4768 20.0473C28.3914 19.9616 28.2754 19.9132 28.1544 19.9127Z" fill="white"/>
<defs>
<linearGradient id="paint0_linear" x1="0" y1="19.3878" x2="41.1266" y2="19.3878" gradientUnits="userSpaceOnUse">
<stop stop-color="#F88632"/>
<stop offset="1" stop-color="#FF4B23"/>
</linearGradient>
</defs>
</svg>
