<svg width="102" height="66" viewBox="0 0 102 66" fill="none" xmlns="http://www.w3.org/2000/svg">
<path d="M26.8254 59.7472C26.675 59.6977 26.5178 59.6723 26.3595 59.672C26.4818 59.4948 26.5676 59.295 26.6121 59.0842C26.6565 58.8734 26.6587 58.6559 26.6183 58.4443C26.5783 58.2247 26.489 58.0171 26.3571 57.8372C26.2253 57.6573 26.0543 57.5099 25.8572 57.406C25.6721 57.332 25.4721 57.3031 25.2736 57.3216C25.0752 57.3401 24.8839 57.4055 24.7155 57.5125C24.4477 57.6639 24.2415 57.905 24.1331 58.1935C24.0248 58.482 24.0211 58.7996 24.1227 59.0906C24.1471 59.1652 24.2 59.2272 24.27 59.2627C24.3399 59.2982 24.421 59.3045 24.4955 59.28C24.57 59.2556 24.6318 59.2025 24.6672 59.1324C24.7026 59.0623 24.7089 58.981 24.6845 58.9063C24.6388 58.7737 24.6311 58.6309 24.662 58.4941C24.693 58.3574 24.7615 58.232 24.8597 58.1321C24.958 58.0323 25.0821 57.9619 25.2181 57.929C25.3541 57.8961 25.4965 57.902 25.6294 57.9459C25.7438 58.0147 25.8415 58.1081 25.9154 58.2195C25.9893 58.3308 26.0375 58.4572 26.0566 58.5896C26.1886 59.1087 25.6009 59.7602 25.3628 59.9627C25.3077 60.0109 25.2721 60.0775 25.2626 60.1501C25.2531 60.2228 25.2703 60.2964 25.311 60.3572C25.3521 60.4174 25.4142 60.4601 25.485 60.4769C25.5559 60.4937 25.6304 60.4834 25.6941 60.448C25.837 60.3597 25.9965 60.3019 26.1626 60.2782C26.3288 60.2546 26.498 60.2655 26.6598 60.3105C26.8221 60.3711 26.9703 60.4646 27.095 60.5852C27.2197 60.7057 27.3183 60.8508 27.3846 61.0113C27.615 61.4837 27.8247 62.2052 27.6435 62.6906C27.6127 62.7843 27.563 62.8706 27.4975 62.9443C27.4321 63.0179 27.3522 63.0774 27.263 63.1189C27.167 63.1757 27.0596 63.2105 26.9486 63.2208C26.8376 63.2311 26.7257 63.2167 26.6209 63.1786C26.3317 63.0111 26.1135 62.7434 26.0074 62.4259C25.9815 62.3513 25.9272 62.29 25.8564 62.2554C25.7855 62.2209 25.7039 62.2159 25.6294 62.2416C25.5925 62.2536 25.5585 62.2728 25.5292 62.2982C25.4999 62.3237 25.4759 62.3547 25.4588 62.3895C25.4417 62.4244 25.4317 62.4623 25.4294 62.5011C25.4271 62.5399 25.4326 62.5787 25.4456 62.6153C25.4456 62.6491 25.7278 63.4459 26.3853 63.721C26.531 63.7836 26.6877 63.8163 26.8462 63.8171C27.0785 63.8135 27.307 63.7567 27.5141 63.651C27.6753 63.5753 27.8192 63.467 27.9368 63.3331C28.0544 63.1991 28.1431 63.0422 28.1975 62.8723C28.4797 62.0521 28.0396 61.0372 27.8972 60.7439C27.796 60.5114 27.6481 60.3023 27.4629 60.1295C27.2776 59.9567 27.0589 59.8239 26.8203 59.7394" fill="white"/>
<path d="M31.7339 55.6489C31.7238 55.6119 31.7066 55.5772 31.6833 55.5469C31.6599 55.5166 31.6308 55.4912 31.5976 55.4722C31.5644 55.4531 31.5278 55.4408 31.4899 55.436C31.452 55.4311 31.4135 55.4338 31.3766 55.4438C31.3397 55.4539 31.3052 55.4711 31.2749 55.4946C31.2447 55.518 31.2194 55.5472 31.2004 55.5804C31.1814 55.6137 31.1691 55.6504 31.1642 55.6884C31.1594 55.7264 31.1621 55.765 31.1721 55.802C31.431 56.7234 31.6899 57.6682 31.9487 58.5896C31.9487 58.9971 31.6899 59.4228 31.2549 59.3683C30.9184 59.3008 30.7165 58.9478 30.5844 58.6623C30.4621 58.3541 30.3651 58.0364 30.2945 57.7123C30.1547 57.1932 30.0123 56.6741 29.8699 56.1394C29.7767 55.7916 29.2305 55.9396 29.3081 56.2926L29.8259 58.2626C29.9272 58.6837 30.1121 59.0801 30.3696 59.428C30.5139 59.6273 30.7138 59.7794 30.9441 59.8653C31.1743 59.9512 31.4248 59.967 31.664 59.9108C31.8769 59.8505 32.0654 59.7242 32.2024 59.55C32.3992 60.2793 32.6141 61.0009 32.8108 61.7303C32.8327 61.8027 32.882 61.8637 32.9481 61.9003C33.0141 61.9369 33.0919 61.9463 33.1647 61.9263C33.2375 61.9064 33.2997 61.8587 33.3381 61.7935C33.3764 61.7283 33.3879 61.6507 33.37 61.5771C32.8186 59.5967 32.2542 57.6371 31.7028 55.6541" fill="white"/>
<path d="M35.8501 54.5356C35.8359 54.5662 35.8255 54.5985 35.8191 54.6316C35.6379 56.2461 35.4152 57.8371 35.1952 59.4438L34.3124 55.0313C34.2903 54.9623 34.2434 54.904 34.181 54.8676C34.1185 54.8311 34.0448 54.8192 33.974 54.834C33.9032 54.8488 33.8405 54.8894 33.7978 54.9479C33.7551 55.0064 33.7355 55.0786 33.7428 55.1507C34.1363 57.1701 34.5454 59.1868 34.957 61.201C35.0269 61.5358 35.511 61.432 35.5395 61.1465C35.7492 59.5892 35.9744 58.0059 36.1815 56.4355C36.4715 57.8813 36.7614 59.301 37.0462 60.7364C37.062 60.8121 37.1071 60.8784 37.1717 60.9208C37.2363 60.9631 37.315 60.978 37.3905 60.9622C37.466 60.9464 37.5322 60.9011 37.5744 60.8364C37.6167 60.7716 37.6315 60.6927 37.6157 60.617C37.2041 58.6002 36.7951 56.5861 36.4016 54.5667C36.3848 54.5088 36.3508 54.4574 36.3041 54.4194C36.2574 54.3814 36.2002 54.3586 36.1402 54.3541C36.0802 54.3496 36.0203 54.3636 35.9685 54.3941C35.9166 54.4247 35.8753 54.4704 35.8501 54.5252" fill="white"/>
<path d="M41.2323 58.9765C41.178 59.2958 41.0666 59.6955 40.7146 59.8019C40.6293 59.8307 40.5388 59.8405 40.4494 59.8307C40.36 59.8208 40.2738 59.7915 40.1968 59.7448C39.7567 59.4671 39.5677 58.8182 39.4434 58.351C39.3313 57.931 39.2448 57.5045 39.1846 57.074C39.103 56.6222 39.0554 56.165 39.0422 55.7061C39.0422 55.3064 39.0784 54.712 39.4201 54.4525C39.8499 54.1073 40.2227 54.4966 40.3392 54.9145C40.4272 55.2649 41.0019 55.174 40.8958 54.8288C40.8646 54.6223 40.7862 54.4259 40.6667 54.2548C40.5473 54.0837 40.39 53.9426 40.2071 53.8425C40.0196 53.7596 39.8131 53.7293 39.6098 53.7549C39.4064 53.7805 39.2138 53.861 39.0525 53.9879C38.3044 54.6238 38.4286 55.8722 38.5606 56.7366C38.6398 57.6141 38.8375 58.4768 39.1483 59.301C39.3606 59.7863 39.7101 60.2535 40.233 60.3807C40.3998 60.4178 40.5724 60.4203 40.7402 60.3882C40.9081 60.3561 41.0676 60.2899 41.209 60.1938C41.5474 59.903 41.7569 59.4895 41.7915 59.044C41.8536 58.6702 41.2919 58.6183 41.2271 58.9765" fill="white"/>
<path d="M44.4372 53.1338L41.8691 53.4167C41.802 53.4351 41.7436 53.4772 41.7048 53.5351C41.6661 53.5931 41.6494 53.6632 41.6579 53.7325C41.6663 53.8018 41.6994 53.8657 41.7511 53.9126C41.8027 53.9594 41.8694 53.9861 41.939 53.9877L42.959 53.8761C43.2179 55.815 43.438 57.7539 43.6865 59.6928C43.6873 59.7319 43.6963 59.7705 43.7127 59.806C43.7292 59.8415 43.7529 59.8732 43.7822 59.8991C43.8115 59.9249 43.8459 59.9444 43.8831 59.9563C43.9204 59.9682 43.9596 59.9721 43.9985 59.968C44.0373 59.9639 44.0749 59.9517 44.1088 59.9322C44.1427 59.9127 44.1722 59.8864 44.1954 59.855C44.2187 59.8235 44.2351 59.7875 44.2438 59.7493C44.2524 59.7111 44.2531 59.6715 44.2457 59.6331C44.0153 57.6916 43.7849 55.7397 43.5389 53.8112L44.5071 53.7048C44.5768 53.6884 44.6381 53.6469 44.6793 53.5883C44.7205 53.5297 44.7389 53.4579 44.7309 53.3866C44.723 53.3153 44.6892 53.2494 44.636 53.2014C44.5829 53.1533 44.514 53.1265 44.4424 53.126" fill="white"/>
<path d="M48.2972 52.9885C48.278 53.0168 48.2624 53.0473 48.2506 53.0794C47.8261 54.6367 47.3627 56.194 46.9044 57.7384C46.8345 56.233 46.7698 54.7405 46.7025 53.2351C46.6984 53.158 46.6639 53.0857 46.6066 53.0341C46.5493 52.9825 46.4739 52.9558 46.397 52.96C46.3201 52.9641 46.248 52.9987 46.1965 53.0561C46.1451 53.1136 46.1185 53.1891 46.1226 53.2662C46.2029 55.3219 46.3012 57.3776 46.397 59.4333C46.4177 59.7759 46.9148 59.7474 46.9821 59.4696C47.43 57.9512 47.8908 56.4302 48.3386 54.9118C48.4034 56.3835 48.4681 57.8396 48.5354 59.3113C48.5395 59.3884 48.574 59.4607 48.6313 59.5123C48.6886 59.5639 48.764 59.5906 48.8409 59.5864C48.9178 59.5823 48.9899 59.5477 49.0414 59.4903C49.0928 59.4328 49.1194 59.3573 49.1153 59.2802C49.0152 57.2245 48.922 55.1688 48.8357 53.1131C48.8278 53.0534 48.8019 52.9975 48.7615 52.953C48.7211 52.9084 48.668 52.8773 48.6095 52.8638C48.551 52.8502 48.4897 52.8549 48.4339 52.8772C48.3781 52.8995 48.3304 52.9383 48.2972 52.9885Z" fill="white"/>
<path d="M52.1209 55.9836C52.4282 55.044 52.7362 54.101 53.0452 53.1545C53.1642 52.8144 52.5999 52.6587 52.4808 53.0039C52.2737 53.6866 52.0355 54.39 51.8129 55.0804C51.5928 54.3952 51.3702 53.6918 51.1475 53.0039C51.0285 52.6613 50.4796 52.8145 50.5987 53.1571C50.8913 54.0993 51.1993 55.044 51.5074 55.9862C51.1622 57.0504 50.817 58.1137 50.4719 59.1762C50.3528 59.5344 50.9171 59.6719 51.0181 59.3293C51.277 58.5247 51.5488 57.7175 51.7948 56.9128C52.0692 57.7175 52.3255 58.5247 52.5714 59.3293C52.6931 59.6745 53.2393 59.537 53.1384 59.1762C52.7966 58.112 52.4368 57.0504 52.1028 55.9862" fill="white"/>
<path d="M58.8105 53.248C58.2133 54.0751 57.5989 54.8849 56.9672 55.6774C57.0164 54.8728 57.0811 54.0708 57.1485 53.248C57.1614 52.8898 56.597 52.8431 56.5711 53.2013C56.4175 55.2535 56.2657 57.3048 56.1155 59.3553C56.1122 59.4303 56.138 59.5036 56.1874 59.5599C56.2368 59.6163 56.306 59.6513 56.3806 59.6577C56.4551 59.664 56.5292 59.6413 56.5874 59.5941C56.6456 59.547 56.6834 59.4791 56.6928 59.4047C56.7679 58.4988 56.8249 57.6085 56.8818 56.7001C56.975 56.6066 57.0527 56.4924 57.1096 56.4405C57.6533 57.5203 58.1969 58.613 58.7251 59.7057C58.7594 59.7746 58.8196 59.8269 58.8924 59.8513C58.9652 59.8756 59.0447 59.8699 59.1134 59.8355C59.182 59.8011 59.2343 59.7407 59.2585 59.6677C59.2828 59.5947 59.2772 59.515 59.2428 59.4462C58.6733 58.2652 58.083 57.0972 57.4928 55.9318C58.1633 55.0727 58.7225 54.3303 59.2817 53.5646C59.5121 53.2584 59.0409 52.9287 58.8105 53.235" fill="white"/>
<path d="M61.6142 59.415C61.4644 59.5167 61.2838 59.5628 61.1037 59.5452C60.9237 59.5277 60.7554 59.4477 60.6278 59.319C60.2939 58.9634 60.4337 58.2808 60.8168 58.0212C61.275 57.6656 61.8083 57.9252 62.1371 58.3145C62.0672 58.722 61.9585 59.171 61.6194 59.4228L61.6142 59.415ZM62.4555 53.5517C61.7825 53.2713 61.1818 53.6607 60.9618 54.2888C60.8453 54.6366 61.3682 54.8598 61.5003 54.5146C61.5909 54.2135 61.7773 53.9799 62.1294 54.0604C62.2152 54.086 62.2926 54.1342 62.3536 54.1999C62.4145 54.2656 62.4569 54.3465 62.4763 54.4341C62.6523 55.0623 62.4763 55.7994 62.3882 56.4301C62.3391 56.8195 62.2847 57.227 62.251 57.6189C62.0218 57.431 61.7415 57.3164 61.4466 57.29C61.1516 57.2636 60.8556 57.3266 60.5968 57.471C60.2744 57.6778 60.0396 57.9968 59.9374 58.3666C59.8351 58.7364 59.8727 59.131 60.0428 59.4747C60.2069 59.7495 60.4631 59.957 60.7655 60.0601C61.068 60.1633 61.3972 60.1554 61.6944 60.038C61.8712 59.9559 62.0317 59.8424 62.1682 59.7031C62.1736 59.8258 62.1865 59.948 62.207 60.0691C62.2614 60.4403 62.8413 60.3598 62.7714 59.9887C62.5979 58.9297 62.7999 57.7617 62.9397 56.6897C63.0554 56.0526 63.1117 55.4061 63.1079 54.7586C63.082 54.2888 62.9241 53.7671 62.4555 53.5517Z" fill="white"/>
<path d="M71.7624 55.2857C71.079 55.1222 70.3852 54.9353 69.6913 54.7874C69.6169 54.7707 69.539 54.7836 69.4739 54.8233C69.4087 54.8629 69.3614 54.9263 69.3418 55.0002C68.8448 56.978 68.327 58.9714 67.8274 60.97C67.8088 61.045 67.8208 61.1244 67.8606 61.1906C67.9004 61.2568 67.9648 61.3044 68.0397 61.323C68.1145 61.3416 68.1936 61.3296 68.2597 61.2897C68.3257 61.2498 68.3732 61.1852 68.3917 61.1102C68.8681 59.2128 69.3444 57.318 69.826 55.3999L71.3352 55.7659C70.8537 57.6788 70.3644 59.5684 69.8881 61.4761C69.8793 61.5133 69.8778 61.5518 69.8838 61.5895C69.8898 61.6273 69.9032 61.6634 69.9231 61.696C69.9431 61.7285 69.9692 61.7568 70.0001 61.7792C70.031 61.8016 70.0659 61.8177 70.103 61.8265C70.14 61.8354 70.1785 61.8369 70.2161 61.8308C70.2537 61.8248 70.2898 61.8114 70.3222 61.7914C70.3547 61.7714 70.3829 61.7452 70.4052 61.7142C70.4276 61.6833 70.4436 61.6483 70.4525 61.6111C70.9521 59.6177 71.4543 57.6217 71.9643 55.6413C71.981 55.5664 71.9683 55.4879 71.9287 55.4222C71.8892 55.3564 71.8259 55.3085 71.7521 55.2883" fill="white"/>
<path d="M73.4011 61.9407C73.2357 62.0176 73.0486 62.0338 72.8726 61.9863C72.6965 61.9389 72.5427 61.8308 72.4381 61.6811C72.1663 61.2814 72.407 60.6429 72.829 60.4197C73.3468 60.1419 73.8257 60.482 74.0898 60.918C73.9603 61.3074 73.7791 61.7382 73.4011 61.9303V61.9407ZM75.1382 56.259C74.5169 55.88 73.8619 56.1681 73.5487 56.7547C73.3804 57.0818 73.8619 57.3855 74.0457 57.0636C74.183 56.7833 74.403 56.5782 74.737 56.7132C74.8181 56.7514 74.8873 56.8109 74.9375 56.8854C74.9876 56.9599 75.0167 57.0466 75.0217 57.1363C75.0994 57.7852 74.8043 58.4834 74.6282 59.0933C74.5169 59.4723 74.4004 59.872 74.3072 60.2484C74.11 60.0263 73.8506 59.8692 73.5628 59.7974C73.275 59.7256 72.9724 59.7426 72.6944 59.8461C72.3444 59.9999 72.0632 60.2776 71.9046 60.6262C71.746 60.9748 71.7212 61.3698 71.8349 61.7356C71.9549 62.0344 72.1772 62.2806 72.4618 62.4299C72.7465 62.5793 73.0749 62.6221 73.3882 62.5506C73.5752 62.4968 73.7508 62.4088 73.906 62.2911C73.8908 62.4142 73.8848 62.5382 73.8878 62.6622C73.8878 62.738 73.9178 62.8106 73.9712 62.8641C74.0246 62.9177 74.0971 62.9478 74.1726 62.9478C74.2481 62.9478 74.3206 62.9177 74.374 62.8641C74.4274 62.8106 74.4574 62.738 74.4574 62.6622C74.4574 61.5903 74.8328 60.469 75.1356 59.4334C75.3471 58.8216 75.5022 58.1917 75.599 57.5516C75.6482 57.0818 75.5757 56.5419 75.1434 56.2538" fill="white"/>
<path d="M79.692 57.7383C78.8377 57.4372 78.1076 57.1854 77.2533 56.8869C77.2173 56.8745 77.1792 56.8693 77.1411 56.8716C77.1031 56.874 77.0659 56.8838 77.0316 56.9005C76.9974 56.9173 76.9667 56.9406 76.9415 56.9693C76.9162 56.9979 76.8968 57.0312 76.8844 57.0673C76.872 57.1035 76.8668 57.1417 76.8691 57.1798C76.8715 57.218 76.8813 57.2553 76.898 57.2896C76.9147 57.324 76.938 57.3547 76.9665 57.38C76.9951 57.4053 77.0283 57.4248 77.0643 57.4372L78.0326 57.7746C77.4242 59.6305 76.7977 61.4837 76.1893 63.3421C76.0676 63.6977 76.6165 63.8898 76.7226 63.5264C77.3465 61.6758 77.973 59.8251 78.5814 57.9693L79.5004 58.2886C79.5705 58.3044 79.644 58.2939 79.7068 58.259C79.7696 58.224 79.8174 58.1671 79.8411 58.0991C79.8648 58.0311 79.8627 57.9568 79.8352 57.8902C79.8077 57.8237 79.7567 57.7696 79.692 57.7383Z" fill="white"/>
<path d="M67.3096 55.9318C67.0715 56.7105 66.1602 56.6508 65.4974 56.4691C65.6243 55.8306 65.7563 55.2051 65.8676 54.5847C66.2562 54.6261 66.6347 54.735 66.986 54.9066C67.364 55.122 67.4235 55.5191 67.3096 55.9448V55.9318ZM67.509 54.5692C67.0119 54.1746 66.3155 54.0734 65.7227 53.993C65.6834 53.9813 65.6421 53.9779 65.6015 53.983C65.5608 53.9881 65.5216 54.0015 65.4864 54.0225C65.4512 54.0434 65.4206 54.0714 65.3967 54.1048C65.3728 54.1381 65.3559 54.176 65.3473 54.2162C64.5706 58.2575 64.9383 56.2044 64.1668 60.2457C64.1591 60.3186 64.179 60.3918 64.2225 60.4508C64.266 60.5098 64.33 60.5503 64.4018 60.5643C64.4737 60.5784 64.5481 60.5649 64.6105 60.5265C64.6729 60.4882 64.7187 60.4278 64.7389 60.3573C64.8968 59.5786 65.2567 57.8551 65.4068 57.0401C66.4139 57.2763 67.5141 57.227 67.8507 56.1187C67.954 55.8544 67.9767 55.5653 67.9159 55.288C67.855 55.0107 67.7134 54.7578 67.509 54.5614" fill="white"/>
<path d="M93.2782 42.6427L90.8343 49.3912L87.2436 47.7949C87.8727 46.6918 88.5665 45.407 89.3509 43.9379C91.3625 40.1821 94.5001 34.3161 96.768 33.0599C95.5926 36.2887 94.438 39.4657 93.2886 42.6427H93.2782ZM98.9452 30.7524C94.7435 28.881 90.9483 35.9669 87.2773 42.8218C85.724 45.7444 83.3552 50.1568 82.3585 50.4657C82.0495 50.5153 81.7729 50.6859 81.5893 50.94C81.4058 51.1941 81.3305 51.5108 81.3799 51.8206C81.4294 52.1304 81.5995 52.4078 81.8529 52.5918C82.1064 52.7758 82.4223 52.8513 82.7313 52.8017C83.8212 52.6304 84.8205 51.6441 86.0062 49.835L90.0344 51.6052C89.6616 52.6434 89.2862 53.6816 88.9083 54.7199C88.855 54.8654 88.8309 55.02 88.8374 55.1749C88.8438 55.3298 88.8807 55.4818 88.9459 55.6224C89.011 55.763 89.1032 55.8893 89.2172 55.9941C89.3311 56.0988 89.4645 56.1801 89.6098 56.2331C89.7382 56.281 89.8741 56.3056 90.0111 56.3057C90.253 56.3051 90.489 56.2301 90.6871 56.0909C90.8852 55.9517 91.036 55.7549 91.1191 55.5271C92.5999 51.4442 94.0497 47.4575 95.4968 43.4655L99.5691 32.25C99.6714 31.9698 99.6637 31.661 99.5473 31.3862C99.431 31.1115 99.2148 30.8914 98.9426 30.7706" fill="white"/>
<path d="M46.3633 25.574C46.3633 25.5454 46.3633 25.5169 46.3478 25.4883V25.3586C46.342 25.2015 46.3048 25.0472 46.2386 24.9047C46.1724 24.7623 46.0784 24.6345 45.9622 24.529C45.846 24.4235 45.71 24.3424 45.562 24.2904C45.4141 24.2385 45.2573 24.2167 45.1008 24.2264C44.9443 24.2361 44.7914 24.277 44.651 24.3469C44.5105 24.4167 44.3854 24.5141 44.2831 24.6331C44.1807 24.7521 44.1032 24.8905 44.055 25.0401C44.0067 25.1896 43.9888 25.3473 44.0023 25.5039L44.0282 25.9218C44.1085 28.6861 42.7338 31.7566 41.4006 34.7286C40.9475 35.7382 40.4919 36.7557 40.0828 37.7783L38.4053 25.9841C38.3613 25.6743 38.1965 25.3947 37.9469 25.2068C37.8233 25.1138 37.6827 25.0461 37.533 25.0075C37.3834 24.969 37.2276 24.9604 37.0746 24.9822C36.9216 25.004 36.7744 25.0558 36.6414 25.1347C36.5084 25.2135 36.3922 25.3179 36.2994 25.4418C36.112 25.692 36.0314 26.0066 36.0753 26.3163L39.0162 47.003C39.0561 47.2837 39.1956 47.5406 39.4091 47.7265C39.6226 47.9124 39.8958 48.015 40.1786 48.0152C40.2341 48.0161 40.2896 48.0117 40.3443 48.0023C40.4975 47.9809 40.645 47.9295 40.7783 47.8508C40.9116 47.7721 41.028 47.6677 41.1209 47.5437C41.2137 47.4197 41.2812 47.2785 41.3195 47.1282C41.3577 46.978 41.3659 46.8216 41.3436 46.6681L41.0459 44.5709C40.7585 41.9053 42.1099 38.8918 43.5441 35.7019C43.8651 34.9855 44.1887 34.2639 44.4968 33.5398L45.2735 46.3125C45.2925 46.6121 45.4247 46.8931 45.643 47.0985C45.8613 47.3039 46.1494 47.4182 46.4488 47.4183H46.5213C46.833 47.3989 47.1242 47.2562 47.331 47.0216C47.5378 46.787 47.6432 46.4797 47.6241 46.1672L46.3659 25.8128C46.3659 25.7349 46.3659 25.6571 46.3659 25.5792" fill="white"/>
<path d="M73.3908 27.7128C73.4027 27.6477 73.4096 27.5818 73.4115 27.5156L73.4322 27.4221C73.4824 27.1205 73.4138 26.8111 73.2411 26.5591C73.0684 26.3071 72.8049 26.1321 72.5061 26.0709C72.2072 26.0097 71.8964 26.0671 71.6389 26.231C71.3815 26.3949 71.1974 26.6526 71.1256 26.9497L71.0143 27.5026C70.3619 29.8775 68.3788 32.2369 66.4527 34.5106C65.79 35.2893 65.1221 36.0939 64.493 36.9011L65.7874 26.0205C65.8157 25.8625 65.8115 25.7004 65.7751 25.5441C65.7387 25.3877 65.6708 25.2405 65.5755 25.1115C65.4803 24.9824 65.3598 24.8742 65.2214 24.7935C65.083 24.7128 64.9296 24.6613 64.7706 24.6422C64.6117 24.6231 64.4505 24.6367 64.2969 24.6823C64.1434 24.7278 64.0008 24.8044 63.8778 24.9072C63.7549 25.01 63.6541 25.1369 63.5819 25.2802C63.5096 25.4234 63.4672 25.58 63.4575 25.7402L60.9774 46.5255C60.959 46.6798 60.9712 46.8362 61.0134 46.9858C61.0555 47.1354 61.1268 47.2751 61.2231 47.3969C61.3193 47.5187 61.4386 47.6203 61.5742 47.6957C61.7098 47.7711 61.8588 47.8188 62.0129 47.8362C62.0603 47.8389 62.1078 47.8389 62.1553 47.8362C62.4424 47.8357 62.7195 47.7299 62.9341 47.5386C63.1487 47.3473 63.2861 47.0839 63.3202 46.798L63.6853 43.6729C63.6853 43.6366 63.7034 43.6029 63.7086 43.5639C63.9908 41.0904 66.0592 38.6324 68.2468 36.0368C68.7024 35.4969 69.1581 34.9544 69.6059 34.4042L66.9627 47.382C66.9009 47.6887 66.9629 48.0074 67.1352 48.2682C67.3075 48.529 67.576 48.7107 67.8818 48.7732C67.9593 48.7887 68.0382 48.7965 68.1174 48.7966C68.3881 48.7962 68.6505 48.7023 68.8604 48.5307C69.0702 48.3591 69.2146 48.1203 69.2694 47.8544L73.308 27.9983C73.3339 27.8971 73.3649 27.7985 73.3882 27.6973" fill="white"/>
<path d="M57.9096 24.183C57.5985 24.1667 57.2936 24.2743 57.0613 24.4824C56.8291 24.6905 56.6882 24.9822 56.6695 25.2939L55.9757 37.8954L55.8023 37.7422L55.401 37.3762C55.2353 37.2283 55.067 37.0829 54.8832 36.935C53.229 35.523 51.3521 33.9241 52.5533 25.2887C52.5745 25.1353 52.5654 24.9792 52.5265 24.8294C52.4876 24.6795 52.4196 24.5388 52.3265 24.4153C52.2333 24.2918 52.1168 24.1878 51.9836 24.1095C51.8504 24.0311 51.7031 23.9798 51.5501 23.9585C51.3971 23.9372 51.2415 23.9463 51.092 23.9853C50.9425 24.0243 50.8022 24.0925 50.679 24.1859C50.5558 24.2793 50.4521 24.3961 50.3739 24.5296C50.2958 24.6632 50.2446 24.8109 50.2233 24.9643C48.9574 34.1344 50.8964 36.6261 53.3662 38.7207C53.5215 38.8557 53.6743 38.9803 53.8218 39.1179C53.9694 39.2554 54.1066 39.3774 54.2516 39.4994C55.1939 40.3248 55.7686 40.8699 55.7401 41.5966C55.7353 41.6835 55.7405 41.7706 55.7557 41.8562L55.5175 46.1311C55.5012 46.4434 55.6089 46.7494 55.817 46.9824C56.0251 47.2154 56.3167 47.3563 56.6281 47.3744H56.6954C56.9956 47.3735 57.2842 47.2578 57.5021 47.0509C57.7201 46.8439 57.851 46.5613 57.8682 46.2609L59.0254 25.4367C59.0341 25.2821 59.0124 25.1273 58.9614 24.9811C58.9105 24.8349 58.8313 24.7002 58.7284 24.5848C58.6254 24.4693 58.5009 24.3753 58.3617 24.3082C58.2225 24.241 58.0715 24.202 57.9173 24.1934" fill="white"/>
<path d="M86.6508 29.5557C86.5046 29.5059 86.3501 29.4855 86.196 29.4956C86.0419 29.5057 85.8913 29.5461 85.7529 29.6146C85.6144 29.683 85.4907 29.7782 85.3889 29.8945C85.2871 30.0109 85.2092 30.1463 85.1596 30.2929L82.0867 39.3774L77.9445 38.1081L80.5075 28.7926C80.5485 28.6433 80.5597 28.4874 80.5406 28.3338C80.5214 28.1801 80.4723 28.0318 80.396 27.8972C80.3196 27.7625 80.2176 27.6443 80.0957 27.5492C79.9738 27.4542 79.8344 27.3841 79.6855 27.343C79.5366 27.3019 79.3811 27.2907 79.2279 27.3099C79.0746 27.3291 78.9266 27.3783 78.7924 27.4548C78.6581 27.5314 78.5402 27.6336 78.4454 27.7559C78.3505 27.8781 78.2806 28.0178 78.2397 28.1671L72.6556 48.48C72.6144 48.6293 72.603 48.7852 72.622 48.939C72.641 49.0927 72.69 49.2411 72.7662 49.3759C72.9201 49.648 73.1755 49.8476 73.4762 49.9309C73.777 50.0142 74.0984 49.9743 74.3698 49.82C74.5041 49.7436 74.6222 49.6414 74.7172 49.5193C74.8122 49.3971 74.8823 49.2574 74.9234 49.1081L77.3543 40.2624L81.3592 41.4953L78.4649 50.0607C78.3653 50.3567 78.3867 50.6803 78.5245 50.9605C78.6623 51.2407 78.9053 51.4547 79.2001 51.5557C79.3229 51.5966 79.4513 51.6176 79.5807 51.618C79.8261 51.6173 80.0652 51.5399 80.2647 51.3967C80.4642 51.2534 80.6142 51.0513 80.6939 50.8186L87.3757 31.056C87.4257 30.9094 87.4463 30.7544 87.4364 30.5998C87.4265 30.4453 87.3863 30.2942 87.3179 30.1553C87.2496 30.0163 87.1546 29.8923 87.0383 29.7903C86.9221 29.6883 86.7868 29.6104 86.6404 29.5609" fill="white"/>
<path d="M18.0415 46.902C17.8267 45.8118 17.5678 44.6101 17.2649 43.2837C16.7652 41.0022 16.2501 38.6429 16.0197 36.826C15.8333 35.3361 15.8229 34.1863 15.9808 33.4024L21.5934 45.5678L18.0415 46.902ZM31.2213 27.1549C31.1865 27.0035 31.1223 26.8605 31.0322 26.734C30.9421 26.6076 30.828 26.5003 30.6963 26.4183C30.5647 26.3363 30.4182 26.2812 30.2653 26.2561C30.1124 26.2311 29.956 26.2366 29.8052 26.2724L29.3288 26.3788C25.8857 27.1367 23.4056 28.4553 25.3369 37.885C25.5336 38.8375 25.7122 39.6811 25.8753 40.4546C26.3439 42.6504 26.6779 44.2363 26.9471 46.2219C27.118 47.486 26.8462 48.4489 26.2533 48.6773C26.0635 48.7335 25.8661 48.7598 25.6682 48.7552L17.3218 30.6589C17.194 30.383 16.965 30.167 16.6825 30.0558C16.4001 29.9447 16.0857 29.9469 15.8048 30.0619C12.9571 31.2377 13.4981 35.5126 13.7001 37.1193C13.9408 39.0426 14.4767 41.4565 14.979 43.7899C15.7116 47.1226 16.7109 51.6882 16.219 52.7887C16.1073 53.0717 16.1088 53.387 16.2233 53.6688C16.3378 53.9507 16.5564 54.1774 16.8335 54.3016C17.1107 54.4258 17.4249 54.4379 17.7108 54.3354C17.9966 54.233 18.232 54.0238 18.3677 53.7516C18.7871 52.8069 18.7664 51.3274 18.4583 49.2613L22.6005 47.704L23.768 50.2373C23.8357 50.3878 23.9343 50.5222 24.0574 50.6318C24.1806 50.7414 24.3255 50.8237 24.4826 50.8732C24.8741 51.038 25.2954 51.1202 25.72 51.1146C26.1874 51.1168 26.6516 51.0377 27.0921 50.881C28.4046 50.3774 29.6809 48.8045 29.2797 45.9027C28.9975 43.8262 28.635 42.1235 28.1768 39.964C28.0137 39.1853 27.8377 38.3574 27.6409 37.41C26.8643 33.6801 26.8073 31.1806 27.4338 29.9555C27.7704 29.304 28.3192 29.0523 29.1916 28.8316L33.5927 48.0388C33.6613 48.3438 33.848 48.6089 34.1116 48.7758C34.3752 48.9428 34.6942 48.9979 34.9984 48.9291C35.3026 48.8602 35.567 48.6731 35.7335 48.4088C35.9 48.1445 35.955 47.8247 35.8864 47.5197L31.2213 27.1549Z" fill="white"/>
<path d="M5.07409 33.2026L9.57866 31.2715C9.72436 31.2134 9.857 31.1267 9.96878 31.0165C10.0806 30.9063 10.1692 30.7747 10.2295 30.6296C10.2898 30.4845 10.3205 30.3288 10.3199 30.1716C10.3192 30.0144 10.2872 29.8589 10.2257 29.7143C10.1642 29.5697 10.0745 29.4389 9.96182 29.3296C9.84914 29.2203 9.71578 29.1347 9.5696 29.0778C9.42343 29.021 9.26738 28.994 9.11066 28.9985C8.95393 29.0031 8.7997 29.039 8.65703 29.1042L3.08069 31.4895C2.79629 31.6115 2.5713 31.8409 2.4545 32.128C2.33771 32.4152 2.33852 32.7369 2.45678 33.0235L11.8051 55.7555C11.8941 55.9712 12.0449 56.1556 12.2384 56.2854C12.432 56.4152 12.6595 56.4846 12.8924 56.4848C13.0859 56.4851 13.2764 56.4375 13.4472 56.3462C13.6179 56.2549 13.7635 56.1228 13.8711 55.9615C13.9786 55.8003 14.0448 55.6149 14.0638 55.4218C14.0827 55.2287 14.0538 55.034 13.9797 54.8548L5.07409 33.2026Z" fill="white"/>
<path d="M40.1631 7.17422L39.1845 8.54468L38.6668 6.27096C39.1328 6.53052 39.6479 6.8342 40.1709 7.17422H40.1631ZM43.772 10.7924C43.8061 10.8892 43.8199 10.9919 43.8123 11.0943C43.8047 11.1966 43.776 11.2962 43.7279 11.3868C43.6374 11.5298 43.5185 11.6527 43.3787 11.7478C43.2389 11.8429 43.0811 11.9082 42.915 11.9397C42.4646 12.0591 41.7604 12.1992 41.1029 12.3238L43.0963 9.67894C43.3781 10.013 43.6005 10.3932 43.7538 10.8028L43.772 10.7924ZM42.1721 8.71079L39.9146 11.7061L39.5806 10.2629L41.2453 7.92693C41.5749 8.17438 41.8873 8.43393 42.1824 8.7056L42.1721 8.71079ZM48.9677 11.4206C48.525 11.4206 48.2247 11.1766 48.2196 10.8132C48.2476 10.36 48.3526 9.91495 48.5302 9.49725L51.2899 11.257V11.418H48.9755L48.9677 11.4206ZM54.9143 11.418H53.5422L55.4761 9.83467C55.5896 10.1491 55.6542 10.4791 55.6676 10.8132C55.6676 11.1792 55.3647 11.405 54.9143 11.4206V11.418ZM49.6175 7.28843L51.2822 8.42009V9.67375L49.0687 8.26176C49.2318 7.93732 49.4104 7.60508 49.602 7.27285C49.602 7.27285 49.602 7.27285 49.6175 7.28843ZM51.2822 6.81863L50.3605 6.1931C50.3312 6.17638 50.2999 6.16331 50.2673 6.15416C50.6065 5.6091 50.9534 5.08739 51.2822 4.61499V6.81863ZM53.7881 6.46823L52.6025 7.45973V4.63057C52.9882 5.18861 53.3998 5.81674 53.7959 6.46304L53.7881 6.46823ZM54.9479 8.53949L52.618 10.4524V9.18059L54.482 7.62325C54.6528 7.93472 54.8107 8.24359 54.9557 8.54208L54.9479 8.53949ZM60.1334 11.3842C60.0847 11.2938 60.0556 11.1942 60.048 11.0917C60.0405 10.9893 60.0545 10.8864 60.0894 10.7898C60.2437 10.3807 60.466 10.0007 60.7469 9.66596L62.7403 12.3108C62.0931 12.1863 61.3915 12.0513 60.9411 11.9293C60.7769 11.8974 60.6208 11.8326 60.482 11.739C60.3433 11.6454 60.2247 11.5247 60.1334 11.3842ZM63.9441 11.7061L61.666 8.70041C61.9585 8.44086 62.2718 8.1813 62.6005 7.92174L64.2626 10.2578L63.9441 11.7061ZM64.6742 8.54468L63.6853 7.17422C64.203 6.8342 64.7208 6.52793 65.1868 6.27356L64.6742 8.54468ZM66.5796 4.52155C66.4845 4.44284 66.369 4.39278 66.2467 4.37716C66.1244 4.36154 66.0001 4.38101 65.8884 4.43331C65.6295 4.54491 59.9159 7.22354 58.8441 10.3642C58.7504 10.6329 58.7135 10.9182 58.7358 11.2019C58.7581 11.4857 58.8391 11.7617 58.9736 12.0124C59.1494 12.3148 59.3857 12.5775 59.6678 12.7839C59.9498 12.9903 60.2714 13.1359 60.6123 13.2115C61.3553 13.4062 62.6834 13.6502 63.46 13.7903L63.2167 14.8441C59.6982 14.3551 56.1539 14.076 52.6025 14.0083V12.7183H54.9117C56.0793 12.7183 56.9672 11.8981 56.9828 10.8028C57.0112 8.26176 53.027 2.89673 52.4575 2.22188C52.3896 2.14799 52.3072 2.08907 52.2153 2.04885C52.1235 2.00863 52.0244 1.98801 51.9242 1.98828C51.8282 1.98841 51.7334 2.00936 51.6463 2.04968C51.5591 2.09 51.4817 2.14875 51.4194 2.22188C50.8498 2.89673 46.8656 8.25917 46.8915 10.8028C46.907 11.8981 47.795 12.7183 48.9626 12.7183H51.2925V14.0161C47.7295 14.0824 44.1738 14.3641 40.6446 14.8597L40.3858 13.7903C41.1624 13.6502 42.4931 13.4062 43.2335 13.2115C43.5741 13.136 43.8954 12.9904 44.177 12.784C44.4586 12.5776 44.6945 12.3148 44.8696 12.0124C45.0043 11.7617 45.0852 11.4856 45.107 11.2017C45.1289 10.9179 45.0912 10.6326 44.9965 10.3642C43.9273 7.22354 38.2008 4.54491 37.9574 4.43331C37.8452 4.38434 37.7215 4.36764 37.6003 4.38507C37.4792 4.4025 37.3652 4.45337 37.2712 4.53201C37.1772 4.61064 37.1068 4.71394 37.068 4.83035C37.0292 4.94676 37.0234 5.0717 37.0513 5.19121L39.4667 15.6487C39.4927 15.7592 39.5463 15.8612 39.6223 15.9451C39.6984 16.0291 39.7945 16.0924 39.9016 16.1289C40.0086 16.1805 40.1289 16.1977 40.246 16.1782C44.1207 15.6006 48.0304 15.2893 51.9475 15.2464C55.8632 15.2903 59.7716 15.5972 63.6464 16.1653C63.674 16.1678 63.7017 16.1678 63.7293 16.1653H63.7422C63.8842 16.1672 64.0224 16.1195 64.1331 16.0303C64.2571 15.9375 64.3436 15.8029 64.3765 15.6513L66.7919 5.19121C66.82 5.07058 66.8136 4.94441 66.7733 4.82729C66.733 4.71018 66.6604 4.60688 66.564 4.52934" fill="white"/>
<path d="M63.2167 17.2529C59.4853 16.6756 55.7176 16.3668 51.9423 16.3289C48.1781 16.3657 44.4215 16.6745 40.7016 17.2529C40.4715 17.2877 40.2631 17.4088 40.1185 17.5916C39.974 17.7745 39.904 18.0056 39.9227 18.2381C39.9415 18.4707 40.0475 18.6875 40.2194 18.8448C40.3914 19.002 40.6164 19.088 40.8492 19.0853C40.8991 19.0893 40.9493 19.0893 40.9993 19.0853C44.6207 18.5206 48.2776 18.2144 51.9423 18.1691C55.6185 18.2121 59.2872 18.5131 62.9215 19.0698C63.1563 19.0969 63.3924 19.0323 63.5809 18.8894C63.7694 18.7465 63.8957 18.5363 63.9337 18.3025C63.9717 18.0687 63.9184 17.8292 63.7849 17.6337C63.6513 17.4382 63.4478 17.3019 63.2167 17.2529Z" fill="white"/>
</svg>
